<svg width="408" height="355" viewBox="0 0 408 355" fill="none" xmlns="http://www.w3.org/2000/svg">
<path d="M319.509 231.593C313.055 236.958 315.194 268.269 295.237 254.785C275.281 241.301 309.32 233.303 307.373 225.66C304.648 214.959 259.64 227.817 267.191 207.321C274.742 186.826 301.649 217.649 308.722 210.019C315.219 203.009 282.832 177.657 297.935 173.342C313.037 169.026 309.785 205.707 319.509 205.704C327.075 205.701 325.666 170.645 339.577 183.05C353.489 195.456 323.08 207.678 327.061 215.376C330.085 221.227 354.028 206.782 352.95 220.266C351.871 233.75 326.296 225.95 319.509 231.593Z" fill="#38BFF2"/>
<path d="M315.194 215.558C315.194 215.558 329.758 233.211 328.139 281.215" stroke="#1A2E35" stroke-width="1.33333" stroke-miterlimit="10" stroke-linecap="round" stroke-linejoin="round"/>
<path d="M286.823 240.535C289.403 235.342 310.794 231.798 298.554 220.526C286.313 209.255 286.353 233.412 280.903 233.319C273.276 233.19 274.76 200.884 262.182 209.223C249.604 217.56 274.607 230.745 270.603 236.715C266.923 242.198 244.727 224.459 244.229 235.298C243.73 246.138 267.873 238.116 269.418 244.654C270.62 249.741 246.828 254.371 257.382 261.75C267.935 269.128 271.314 246.739 277.123 248.191C281.537 249.294 275.635 267.689 284.529 264.818C293.422 261.948 284.11 245.995 286.823 240.535Z" fill="#38BFF2"/>
<g opacity="0.300003">
<g opacity="0.300003">
<path opacity="0.300003" d="M286.823 240.535C289.403 235.342 310.793 231.798 298.553 220.526C286.313 209.255 286.353 233.411 280.903 233.319C273.275 233.19 274.76 200.884 262.181 209.223C249.603 217.56 274.607 230.745 270.602 236.715C266.923 242.198 244.726 224.458 244.228 235.298C243.729 246.138 267.873 238.116 269.418 244.654C270.619 249.741 246.828 254.371 257.381 261.749C267.935 269.128 271.314 246.739 277.122 248.191C281.536 249.294 275.635 267.689 284.528 264.818C293.422 261.948 284.109 245.995 286.823 240.535Z" fill="black"/>
</g>
</g>
<path d="M275.821 240.762C275.821 240.762 317.265 236.447 321.354 281.214" stroke="#1A2E35" stroke-width="1.33333" stroke-miterlimit="10" stroke-linecap="round" stroke-linejoin="round"/>
<path d="M354.829 235.908C361.283 241.273 359.144 272.583 379.1 259.1C399.057 245.615 365.019 237.619 366.965 229.975C369.69 219.273 414.698 232.132 407.147 211.636C399.596 191.14 372.689 221.964 365.616 214.334C359.119 207.323 391.506 181.972 376.404 177.657C361.301 173.342 364.553 210.023 354.829 210.019C347.263 210.015 348.672 174.959 334.761 187.365C320.849 199.77 351.258 211.992 347.278 219.69C344.253 225.542 320.31 211.097 321.388 224.581C322.467 238.064 348.041 230.265 354.829 235.908Z" fill="#38BFF2"/>
<g opacity="0.300003">
<g opacity="0.300003">
<path opacity="0.300003" d="M354.829 235.908C361.283 241.273 359.144 272.583 379.1 259.1C399.057 245.615 365.019 237.619 366.965 229.975C369.69 219.273 414.698 232.132 407.147 211.636C399.596 191.14 372.689 221.964 365.616 214.334C359.119 207.323 391.506 181.972 376.404 177.657C361.301 173.342 364.553 210.023 354.829 210.019C347.263 210.015 348.672 174.959 334.761 187.365C320.849 199.77 351.258 211.992 347.278 219.69C344.253 225.542 320.31 211.097 321.388 224.581C322.467 238.064 348.041 230.265 354.829 235.908Z" fill="white"/>
</g>
</g>
<path d="M359.422 219.873C359.422 219.873 340.545 245.077 336.23 287.148" stroke="#1A2E35" stroke-width="1.33333" stroke-miterlimit="10" stroke-linecap="round" stroke-linejoin="round"/>
<path d="M345.906 352.958H316.479C310.845 352.958 306.149 348.646 305.672 343.032L301.045 288.664C300.507 282.335 305.5 276.899 311.852 276.899H350.533C356.885 276.899 361.878 282.335 361.34 288.664L356.713 343.032C356.236 348.646 351.54 352.958 345.906 352.958Z" fill="#38BFF2"/>
<path d="M345.906 352.958H316.479C310.845 352.958 306.149 348.646 305.672 343.032L301.045 288.664C300.507 282.335 305.5 276.899 311.852 276.899H350.533C356.885 276.899 361.878 282.335 361.34 288.664L356.713 343.032C356.236 348.646 351.54 352.958 345.906 352.958Z" stroke="#1A2E35" stroke-width="1.33333" stroke-miterlimit="10" stroke-linecap="round" stroke-linejoin="round"/>
<path d="M125.557 274.874C135.391 274.874 163.803 268.455 163.803 268.455H87.3121C87.3121 268.455 115.724 274.874 125.557 274.874Z" fill="#1A2E35"/>
<path d="M125.557 274.874C135.391 274.874 163.803 268.455 163.803 268.455H87.3121C87.3121 268.455 115.724 274.874 125.557 274.874Z" stroke="#1A2E35" stroke-width="1.33333" stroke-miterlimit="10" stroke-linecap="round" stroke-linejoin="round"/>
<path d="M116.792 283.678H134.32V271.664H116.792V283.678Z" fill="#868686" stroke="#1A2E35" stroke-width="1.33333" stroke-miterlimit="10" stroke-linecap="round" stroke-linejoin="round"/>
<path d="M114.201 335.34H136.914V283.678H114.201V335.34Z" fill="#9A9A9A" stroke="#1A2E35" stroke-width="1.33333" stroke-miterlimit="10" stroke-linecap="round" stroke-linejoin="round"/>
<path d="M82.8957 253.132H97.6564C96.0166 242.962 94.8064 232.598 94.0601 222.324H79.2983C80.0446 232.598 81.2559 242.962 82.8957 253.132Z" fill="#868686"/>
<path d="M82.8957 253.132H97.6564C96.0166 242.962 94.8064 232.598 94.0601 222.324H79.2983C80.0446 232.598 81.2559 242.962 82.8957 253.132Z" stroke="#1A2E35" stroke-width="1.33333" stroke-miterlimit="10" stroke-linecap="round" stroke-linejoin="round"/>
<path d="M60.4739 131.339H124.104C131.583 131.339 136.477 137.653 135.031 145.097C130.957 168.004 128.55 190.651 127.757 213.913C127.636 220.654 122.506 225.86 115.762 225.86H62.1969C55.452 225.86 49.3799 220.654 48.5142 213.913C45.9339 190.898 45.002 168.255 45.7228 145.097C46.0768 137.653 52.9933 131.339 60.4739 131.339Z" fill="#868686"/>
<path d="M60.4739 131.339H124.104C131.583 131.339 136.477 137.653 135.031 145.097C130.957 168.004 128.55 190.651 127.757 213.913C127.636 220.654 122.506 225.86 115.762 225.86H62.1969C55.452 225.86 49.3799 220.654 48.5142 213.913C45.9339 190.898 45.002 168.255 45.7228 145.097C46.0768 137.653 52.9933 131.339 60.4739 131.339Z" stroke="#1A2E35" stroke-width="1.33333" stroke-miterlimit="10" stroke-linecap="round" stroke-linejoin="round"/>
<path d="M57.0083 145.096C56.2865 168.255 57.2194 190.899 59.7997 213.913C60.6654 220.654 66.7375 225.861 73.4824 225.861H115.761C122.507 225.861 127.637 220.654 127.756 213.913C128.55 190.651 130.958 168.004 135.032 145.096C136.478 137.654 131.584 131.339 124.104 131.339H71.7594C64.2778 131.339 57.3623 137.654 57.0083 145.096Z" fill="#9A9A9A"/>
<path d="M57.0083 145.096C56.2865 168.255 57.2194 190.899 59.7997 213.913C60.6654 220.654 66.7375 225.861 73.4824 225.861H115.761C122.507 225.861 127.637 220.654 127.756 213.913C128.55 190.651 130.958 168.004 135.032 145.096C136.478 137.654 131.584 131.339 124.104 131.339H71.7594C64.2778 131.339 57.3623 137.654 57.0083 145.096Z" stroke="#1A2E35" stroke-width="1.33333" stroke-miterlimit="10" stroke-linecap="round" stroke-linejoin="round"/>
<path d="M87.3116 344.614C87.3116 345.826 88.4279 346.728 89.6125 346.47C96.5727 344.952 117.422 340.56 125.557 340.56C133.691 340.56 154.541 344.952 161.501 346.47C162.686 346.728 163.802 345.826 163.802 344.614C163.802 342.264 162.166 340.236 159.869 339.742C151.721 337.992 133.13 334.186 125.557 334.186C117.985 334.186 99.3929 337.992 91.2449 339.742C88.9472 340.236 87.3116 342.264 87.3116 344.614Z" fill="#1A2E35"/>
<path d="M87.3116 344.614C87.3116 345.826 88.4279 346.728 89.6125 346.47C96.5727 344.952 117.422 340.56 125.557 340.56C133.691 340.56 154.541 344.952 161.501 346.47C162.686 346.728 163.802 345.826 163.802 344.614C163.802 342.264 162.166 340.236 159.869 339.742C151.721 337.992 133.13 334.186 125.557 334.186C117.985 334.186 99.3929 337.992 91.2448 339.742C88.9471 340.236 87.3116 342.264 87.3116 344.614Z" stroke="#1A2E35" stroke-width="1.33333" stroke-miterlimit="10" stroke-linecap="round" stroke-linejoin="round"/>
<path d="M163.803 350.855C165.761 350.855 167.346 349.27 167.346 347.312C167.346 345.356 165.761 343.769 163.803 343.769C161.846 343.769 160.261 345.356 160.261 347.312C160.261 349.27 161.846 350.855 163.803 350.855ZM163.803 340.771C167.416 340.771 170.344 343.7 170.344 347.312C170.344 350.924 167.416 353.854 163.803 353.854C160.191 353.854 157.262 350.924 157.262 347.312C157.262 343.7 160.191 340.771 163.803 340.771Z" fill="#868686"/>
<path d="M163.803 350.855C165.761 350.855 167.346 349.27 167.346 347.312C167.346 345.356 165.761 343.769 163.803 343.769C161.846 343.769 160.261 345.356 160.261 347.312C160.261 349.27 161.846 350.855 163.803 350.855ZM163.803 340.771C167.416 340.771 170.344 343.7 170.344 347.312C170.344 350.924 167.416 353.854 163.803 353.854C160.191 353.854 157.262 350.924 157.262 347.312C157.262 343.7 160.191 340.771 163.803 340.771Z" stroke="#1A2E35" stroke-width="1.33333" stroke-miterlimit="10" stroke-linecap="round" stroke-linejoin="round"/>
<path d="M125.557 350.855C127.514 350.855 129.099 349.27 129.099 347.312C129.099 345.356 127.514 343.769 125.557 343.769C123.601 343.769 122.014 345.356 122.014 347.312C122.014 349.27 123.601 350.855 125.557 350.855ZM125.557 340.771C129.169 340.771 132.098 343.7 132.098 347.312C132.098 350.924 129.169 353.854 125.557 353.854C121.944 353.854 119.016 350.924 119.016 347.312C119.016 343.7 121.944 340.771 125.557 340.771Z" fill="#868686"/>
<path d="M125.557 350.855C127.514 350.855 129.099 349.27 129.099 347.312C129.099 345.356 127.514 343.769 125.557 343.769C123.601 343.769 122.014 345.356 122.014 347.312C122.014 349.27 123.601 350.855 125.557 350.855ZM125.557 340.771C129.169 340.771 132.098 343.7 132.098 347.312C132.098 350.924 129.169 353.854 125.557 353.854C121.944 353.854 119.016 350.924 119.016 347.312C119.016 343.7 121.944 340.771 125.557 340.771Z" stroke="#1A2E35" stroke-width="1.33333" stroke-miterlimit="10" stroke-linecap="round" stroke-linejoin="round"/>
<path d="M88.105 350.855C90.0625 350.855 91.648 349.27 91.648 347.312C91.648 345.356 90.0625 343.769 88.105 343.769C86.1485 343.769 84.563 345.356 84.563 347.312C84.563 349.27 86.1485 350.855 88.105 350.855ZM88.105 340.771C91.7184 340.771 94.6473 343.7 94.6473 347.312C94.6473 350.924 91.7184 353.854 88.105 353.854C84.4926 353.854 81.5637 350.924 81.5637 347.312C81.5637 343.7 84.4926 340.771 88.105 340.771Z" fill="#868686"/>
<path d="M88.105 350.855C90.0625 350.855 91.648 349.27 91.648 347.312C91.648 345.356 90.0625 343.769 88.105 343.769C86.1485 343.769 84.563 345.356 84.563 347.312C84.563 349.27 86.1485 350.855 88.105 350.855ZM88.105 340.771C91.7184 340.771 94.6473 343.7 94.6473 347.312C94.6473 350.924 91.7184 353.854 88.105 353.854C84.4926 353.854 81.5637 350.924 81.5637 347.312C81.5637 343.7 84.4926 340.771 88.105 340.771Z" stroke="#1A2E35" stroke-width="1.33333" stroke-miterlimit="10" stroke-linecap="round" stroke-linejoin="round"/>
<path d="M106.168 251.064C131.911 251.86 157.037 250.749 182.608 247.684C187.814 246.984 192.023 250.548 192.023 255.772V257.021C192.023 262.246 187.814 267.154 182.608 267.855C157.037 270.919 131.911 272.03 106.168 271.233V251.064Z" fill="#9A9A9A"/>
<path d="M106.168 251.064C131.911 251.86 157.037 250.749 182.608 247.684C187.814 246.984 192.023 250.548 192.023 255.772V257.021C192.023 262.246 187.814 267.154 182.608 267.855C157.037 270.919 131.911 272.03 106.168 271.233V251.064Z" stroke="#1A2E35" stroke-width="1.33333" stroke-miterlimit="10" stroke-linecap="round" stroke-linejoin="round"/>
<path d="M66.0778 267.52C81.9218 269.501 97.6283 270.82 113.582 271.505C117.471 271.614 120.626 268.5 120.626 264.62V258.497C120.626 254.618 117.471 251.444 113.582 251.335C97.6283 250.65 81.9218 249.332 66.0778 247.351C62.2149 246.809 59.0898 249.456 59.0898 253.334V259.458C59.0898 263.338 62.2149 266.979 66.0778 267.52Z" fill="#868686"/>
<path d="M66.0778 267.52C81.9218 269.501 97.6283 270.82 113.582 271.505C117.471 271.614 120.626 268.5 120.626 264.62V258.497C120.626 254.618 117.471 251.444 113.582 251.335C97.6283 250.65 81.9218 249.332 66.0778 247.351C62.2149 246.809 59.0898 249.456 59.0898 253.334V259.458C59.0898 263.338 62.2149 266.979 66.0778 267.52Z" stroke="#1A2E35" stroke-width="1.33333" stroke-miterlimit="10" stroke-linecap="round" stroke-linejoin="round"/>
<path d="M172.163 350.455C172.21 346.893 172.941 339.763 177.132 330.568L182.605 310.843L199.664 318.13L194.866 333.234C194.866 333.234 209.532 340.231 214.946 342.12C218.553 343.376 229.34 345.851 228.807 350.471C228.807 351.846 227.694 352.959 226.32 352.959H174.652C173.27 352.959 172.145 351.837 172.163 350.455Z" fill="white"/>
<path d="M172.163 350.455C172.21 346.893 172.941 339.763 177.132 330.568L182.605 310.843L199.664 318.13L194.866 333.234C194.866 333.234 209.532 340.231 214.946 342.12C218.553 343.376 229.34 345.851 228.807 350.471C228.807 351.846 227.694 352.959 226.32 352.959H174.652C173.27 352.959 172.145 351.837 172.163 350.455Z" stroke="#1A2E35" stroke-width="1.33333" stroke-miterlimit="10" stroke-linecap="round" stroke-linejoin="round"/>
<path d="M181.55 338.921C184.216 340.875 198.432 343.363 194.866 340.52C191.302 337.676 194.866 333.233 194.866 333.233C194.866 333.233 209.532 340.231 214.947 342.119C218.554 343.376 229.341 345.851 228.808 350.471C228.808 351.845 227.694 352.958 226.32 352.958H174.652C173.27 352.958 172.146 351.837 172.163 350.455C172.203 347.447 172.738 341.885 175.428 334.691C178.365 334.727 178.885 336.966 181.55 338.921Z" fill="#38BFF2"/>
<path d="M181.55 338.921C184.216 340.875 198.432 343.363 194.866 340.52C191.302 337.676 194.866 333.233 194.866 333.233C194.866 333.233 209.532 340.231 214.947 342.119C218.554 343.376 229.341 345.851 228.808 350.471C228.808 351.845 227.694 352.958 226.32 352.958H174.652C173.27 352.958 172.146 351.837 172.163 350.455C172.203 347.447 172.738 341.885 175.428 334.691C178.365 334.727 178.885 336.966 181.55 338.921Z" stroke="#1A2E35" stroke-width="1.33333" stroke-miterlimit="10" stroke-linecap="round" stroke-linejoin="round"/>
<path d="M159.822 352.958H121.973C121.191 352.958 120.523 352.404 120.375 351.636C119.795 348.628 119.927 341.901 123.341 332.967L123.677 314.831L143.066 318.129L140.607 333.59C140.607 333.59 148.413 342.18 152.121 343.719C154.728 344.8 160.648 344.914 161.444 351.145C161.567 352.108 160.793 352.958 159.822 352.958Z" fill="white"/>
<path d="M159.822 352.958H121.973C121.191 352.958 120.523 352.404 120.375 351.636C119.795 348.628 119.927 341.901 123.341 332.967L123.677 314.831L143.066 318.129L140.607 333.59C140.607 333.59 148.413 342.18 152.121 343.719C154.728 344.8 160.648 344.914 161.444 351.145C161.567 352.108 160.793 352.958 159.822 352.958Z" stroke="#1A2E35" stroke-width="1.33333" stroke-miterlimit="10" stroke-linecap="round" stroke-linejoin="round"/>
<path d="M129.73 338.989C133.732 341.787 136.681 342.12 134.815 337.923C132.949 333.727 140.606 333.59 140.606 333.59C140.606 333.59 148.413 342.179 152.121 343.719C154.727 344.799 160.649 344.914 161.444 351.144C161.567 352.108 160.794 352.959 159.822 352.959H121.974C121.19 352.959 120.523 352.404 120.375 351.636C119.795 348.627 119.928 341.9 123.342 332.967C126.262 333.678 125.728 336.192 129.73 338.989Z" fill="#38BFF2"/>
<path d="M129.73 338.989C133.732 341.787 136.681 342.12 134.815 337.923C132.949 333.727 140.606 333.59 140.606 333.59C140.606 333.59 148.413 342.179 152.121 343.719C154.727 344.799 160.649 344.914 161.444 351.144C161.567 352.108 160.794 352.959 159.822 352.959H121.974C121.19 352.959 120.523 352.404 120.375 351.636C119.795 348.627 119.928 341.9 123.342 332.967C126.262 333.678 125.728 336.192 129.73 338.989Z" stroke="#1A2E35" stroke-width="1.33333" stroke-miterlimit="10" stroke-linecap="round" stroke-linejoin="round"/>
<path d="M163.591 214.528C163.591 214.528 167.402 218.438 183.001 220.925C198.598 223.413 230.941 231.233 230.585 244.027C230.23 256.822 200.376 325.06 200.376 325.06C200.376 325.06 185.449 322.216 178.518 317.951C178.518 317.951 190.533 269.26 199.542 256.466C199.542 256.466 159.099 251.491 136.733 242.25C114.367 233.009 127.517 211.979 127.517 211.979L163.591 214.528Z" fill="#1A2E35"/>
<path d="M163.591 214.528C163.591 214.528 167.402 218.438 183.001 220.925C198.598 223.413 230.941 231.233 230.585 244.027C230.23 256.822 200.376 325.06 200.376 325.06C200.376 325.06 185.449 322.216 178.518 317.951C178.518 317.951 190.533 269.26 199.542 256.466C199.542 256.466 159.099 251.491 136.733 242.25C114.367 233.009 127.517 211.979 127.517 211.979L163.591 214.528Z" stroke="#1A2E35" stroke-width="1.33333" stroke-miterlimit="10" stroke-linecap="round" stroke-linejoin="round"/>
<path d="M138.181 212.732C138.181 212.732 132.443 222.347 136.733 227.678C141.022 233.009 165.352 242.961 162.606 255.045C159.859 267.128 150.775 284.188 144.85 324.704C144.85 324.704 131.071 322.572 121.83 318.663C121.83 318.663 120.299 277.435 131.016 259.665C131.016 259.665 100.328 253.979 97.2188 243.672C94.1087 233.365 99.927 217.604 100.039 211.979L138.181 212.732Z" fill="#1A2E35"/>
<path d="M138.181 212.732C138.181 212.732 132.443 222.347 136.733 227.678C141.022 233.009 165.352 242.961 162.606 255.045C159.859 267.128 150.775 284.188 144.85 324.704C144.85 324.704 131.071 322.572 121.83 318.663C121.83 318.663 120.299 277.435 131.016 259.665C131.016 259.665 100.328 253.979 97.2188 243.672C94.1087 233.365 99.927 217.604 100.039 211.979L138.181 212.732Z" stroke="#1A2E35" stroke-width="1.33333" stroke-miterlimit="10" stroke-linecap="round" stroke-linejoin="round"/>
<path d="M156.669 227.999C157.348 227.955 158.056 227.962 158.793 228.034" stroke="#808080" stroke-linecap="round" stroke-linejoin="round"/>
<path d="M155.32 221.637C155.32 221.637 149.017 223.491 146.545 231.704C146.348 232.355 147.16 232.853 147.637 232.369C148.95 231.043 150.997 229.413 153.707 228.558" stroke="#808080" stroke-linecap="round" stroke-linejoin="round"/>
<path d="M202.507 256.022C202.507 252.556 217.434 250.691 213.436 247.492C209.438 244.294 200.375 254.689 200.375 254.689" stroke="#808080" stroke-linecap="round" stroke-linejoin="round"/>
<path d="M129.161 269.883C129.161 265.914 143.426 263.752 142.713 259.487C142 255.222 132.938 263.619 132.938 263.619" stroke="#808080" stroke-linecap="round" stroke-linejoin="round"/>
<path d="M201.947 325.303L200.377 328.927C200.197 329.339 199.757 329.568 199.32 329.469C195.872 328.692 181.498 325.296 176.451 321.676C176.15 321.461 176.025 321.073 176.113 320.713L177.091 316.673C177.236 316.075 177.908 315.78 178.449 316.076C180.716 317.315 187.04 320.268 201.319 324.028C201.872 324.173 202.174 324.778 201.947 325.303Z" fill="#9A9A9A"/>
<path d="M201.947 325.303L200.377 328.927C200.197 329.339 199.757 329.568 199.32 329.469C195.872 328.692 181.498 325.296 176.451 321.676C176.15 321.461 176.025 321.073 176.113 320.713L177.091 316.673C177.236 316.075 177.908 315.78 178.449 316.076C180.716 317.315 187.04 320.268 201.319 324.028C201.872 324.173 202.174 324.778 201.947 325.303Z" stroke="#1A2E35" stroke-width="1.33333" stroke-miterlimit="10" stroke-linecap="round" stroke-linejoin="round"/>
<path d="M146.586 322.318C146.665 321.773 146.138 321.322 145.623 321.513C144.601 321.893 142.869 322.189 140.267 321.594C136.315 320.691 124.997 317.109 121.631 316.035C121.154 315.883 120.676 316.241 120.676 316.741V321.454C120.676 321.747 120.841 322.008 121.108 322.126C123.755 323.305 137.921 329.373 145.335 327.72C145.631 327.653 145.848 327.401 145.892 327.1L146.586 322.318Z" fill="#9A9A9A"/>
<path d="M146.586 322.318C146.665 321.773 146.138 321.322 145.623 321.513C144.601 321.893 142.869 322.189 140.267 321.594C136.315 320.691 124.997 317.109 121.631 316.035C121.154 315.883 120.676 316.241 120.676 316.741V321.454C120.676 321.747 120.841 322.008 121.108 322.126C123.755 323.305 137.921 329.373 145.335 327.72C145.631 327.653 145.848 327.401 145.892 327.1L146.586 322.318Z" stroke="#1A2E35" stroke-width="1.33333" stroke-miterlimit="10" stroke-linecap="round" stroke-linejoin="round"/>
<path d="M135.184 223.628C135.318 225.088 135.777 226.49 136.732 227.678C139.862 231.566 153.652 237.913 159.821 245.752" stroke="#808080" stroke-width="1.33333" stroke-linecap="round" stroke-linejoin="round"/>
<path d="M135.849 218.206C135.624 218.973 135.433 219.783 135.306 220.607" stroke="#808080" stroke-width="1.33333" stroke-linecap="round" stroke-linejoin="round"/>
<path d="M217.505 344.518C217.505 344.518 216.439 346.206 215.639 349.583H177.133C177.133 349.583 177.03 347.001 174.99 345.185" stroke="#1A2E35" stroke-width="1.33333" stroke-miterlimit="10" stroke-linecap="round" stroke-linejoin="round"/>
<path d="M150.6 344.518C150.6 344.518 145.269 344.918 143.27 349.583H123.145C123.145 349.583 122.079 347.184 122.079 345.185" stroke="#1A2E35" stroke-width="1.33333" stroke-miterlimit="10" stroke-linecap="round" stroke-linejoin="round"/>
<path d="M182.159 154.226C181.664 156.109 181.157 157.973 180.649 159.796C175.318 178.988 168.389 215.506 168.389 215.506C134.27 222.703 98.2852 215.506 98.2852 215.506C98.089 207.544 99.0582 197.044 100.138 186.014C94.5427 184.466 90.5082 179.301 90.2885 170.725C90.022 160.329 91.906 141.612 92.9541 132.874C93.8763 125.184 93.2206 120.612 105.13 114.786C111.099 111.34 121.009 109.71 133.204 108.084C157.194 104.886 174.505 109.733 180.649 112.349C185.52 111.067 186.875 116.786 186.875 116.786C189.574 114.742 192.706 123.38 192.706 123.38C200.597 133.45 206.805 150.405 208.868 156.452C209.32 157.777 210.166 158.921 211.278 159.769C216.875 164.037 213.764 169.314 213.764 169.314L202.302 172.827C202.302 172.827 196.749 174.272 192.507 166.969C188.957 160.86 183.158 150.504 182.159 154.226Z" fill="#38BFF2"/>
<g opacity="0.300003">
<g opacity="0.300003">
<path opacity="0.300003" d="M200.191 168.007C200.191 168.007 200.457 162.677 204.722 161.744C208.987 160.811 203.523 159.219 200.191 160.016C196.859 160.811 197.627 157.879 194.778 153.081C191.928 148.283 190.529 144.49 188.096 147.257C185.663 150.023 183.186 150.404 182.159 154.226C181.132 158.047 186.197 166.968 186.197 166.968L194.153 173.139L198.192 175.404H204.224L206.284 170.19L200.191 168.007Z" fill="black"/>
</g>
</g>
<path d="M182.16 154.226C181.665 156.109 181.157 157.973 180.65 159.796C175.319 178.988 168.389 215.506 168.389 215.506C134.27 222.703 98.2856 215.506 98.2856 215.506C98.0894 207.544 99.0586 197.044 100.139 186.014C94.5432 184.466 90.5086 179.301 90.289 170.725C90.0224 160.329 91.9064 141.611 92.9545 132.874C93.8768 125.184 93.2211 120.612 105.131 114.785C111.099 111.339 121.01 109.71 133.204 108.084C157.194 104.886 174.505 109.733 180.65 112.349C185.52 111.066 186.876 116.786 186.876 116.786C189.574 114.742 192.707 123.38 192.707 123.38C200.598 133.45 206.805 150.405 208.868 156.452C209.321 157.776 210.166 158.92 211.278 159.769C216.876 164.037 213.765 169.314 213.765 169.314L202.303 172.827C202.303 172.827 196.75 174.272 192.507 166.969C188.958 160.86 183.159 150.504 182.16 154.226Z" stroke="#1A2E35" stroke-width="1.33333" stroke-miterlimit="10" stroke-linecap="round" stroke-linejoin="round"/>
<g opacity="0.300003">
<g opacity="0.300003">
<path opacity="0.300003" d="M98.2866 215.506C98.1448 209.746 98.6161 202.647 99.2942 194.991C98.132 211.222 131.942 216.301 133.008 207.504C134.074 198.702 100.14 186.014 118.604 190.45C134.719 194.32 165.939 190.622 173.622 189.619C170.672 203.487 168.39 215.506 168.39 215.506C134.271 222.703 98.2866 215.506 98.2866 215.506Z" fill="black"/>
</g>
</g>
<g opacity="0.300003">
<g opacity="0.300003">
<path opacity="0.300003" d="M113.788 133.94C113.788 133.94 118.613 148.067 118.603 155.531C118.593 162.987 132.138 167.997 132.161 168.007C124.909 166.528 117.847 164.578 114.473 163.603C113.275 163.258 112.493 162.121 112.602 160.88C113.267 153.228 113.988 142.924 113.787 133.94H113.788Z" fill="black"/>
</g>
</g>
<path d="M186.627 130.383C186.627 130.383 186.789 140.545 183.071 149.885C182.726 150.751 183.71 151.541 184.468 150.998C186.297 149.689 188.883 147.02 191.223 141.645" stroke="#1A2E35" stroke-miterlimit="10" stroke-linecap="round" stroke-linejoin="round"/>
<path d="M96.1527 173.923C98.9654 164.595 103.834 162.258 107.607 162.024C108.214 161.986 108.415 161.193 107.882 160.904C105.692 159.718 101.419 158.781 96.1527 164.593" stroke="#1A2E35" stroke-miterlimit="10" stroke-linecap="round" stroke-linejoin="round"/>
<path d="M150.239 147.219C150.239 148.104 150.957 148.82 151.841 148.82C152.726 148.82 153.443 148.104 153.443 147.219C153.443 146.334 152.726 145.617 151.841 145.617C150.957 145.617 150.239 146.334 150.239 147.219Z" fill="#9A9A9A"/>
<path d="M150.239 147.219C150.239 148.104 150.957 148.82 151.841 148.82C152.726 148.82 153.443 148.104 153.443 147.219C153.443 146.334 152.726 145.617 151.841 145.617C150.957 145.617 150.239 146.334 150.239 147.219Z" stroke="#1A2E35" stroke-miterlimit="10" stroke-linecap="round" stroke-linejoin="round"/>
<path d="M148.068 165.367C148.068 166.252 148.786 166.969 149.671 166.969C150.556 166.969 151.272 166.252 151.272 165.367C151.272 164.482 150.556 163.765 149.671 163.765C148.786 163.765 148.068 164.482 148.068 165.367Z" fill="#9A9A9A"/>
<path d="M148.068 165.367C148.068 166.252 148.786 166.969 149.671 166.969C150.556 166.969 151.272 166.252 151.272 165.367C151.272 164.482 150.556 163.765 149.671 163.765C148.786 163.765 148.068 164.482 148.068 165.367Z" stroke="#1A2E35" stroke-miterlimit="10" stroke-linecap="round" stroke-linejoin="round"/>
<path d="M142.713 209.105C142.713 209.99 143.43 210.708 144.315 210.708C145.199 210.708 145.917 209.99 145.917 209.105C145.917 208.22 145.199 207.504 144.315 207.504C143.43 207.504 142.713 208.22 142.713 209.105Z" fill="#9A9A9A"/>
<path d="M142.713 209.105C142.713 209.99 143.43 210.708 144.315 210.708C145.199 210.708 145.917 209.99 145.917 209.105C145.917 208.22 145.199 207.504 144.315 207.504C143.43 207.504 142.713 208.22 142.713 209.105Z" stroke="#1A2E35" stroke-width="1.33333" stroke-miterlimit="10" stroke-linecap="round" stroke-linejoin="round"/>
<path d="M173.329 177.255C173.329 177.255 178.567 182.251 176.076 182.329C173.586 182.407 170.436 178.987 167.547 178.587C164.658 178.188 169.322 176.422 169.322 176.422L173.329 177.255Z" fill="white"/>
<path d="M173.329 177.255C173.329 177.255 178.567 182.251 176.076 182.329C173.586 182.407 170.436 178.987 167.547 178.587C164.658 178.188 169.322 176.422 169.322 176.422L173.329 177.255Z" stroke="#1A2E35" stroke-width="1.33333" stroke-miterlimit="10" stroke-linecap="round" stroke-linejoin="round"/>
<path d="M142.76 171.643C143.229 171.216 143.865 171.014 144.498 171.065C147.064 171.271 154.412 171.829 157.194 171.657C162.113 171.354 176.621 168.28 176.621 168.28C176.957 168.223 177.303 168.242 177.63 168.338L186.614 170.977C186.941 171.074 187.242 171.243 187.493 171.475L192.931 176.472C193.11 176.637 193.262 176.83 193.379 177.045L194.505 179.11C194.983 179.983 194.821 181.068 194.11 181.765L185.113 182.046C184.557 182.063 184.015 181.873 183.593 181.511L180.929 179.226C180.752 179.074 180.601 178.894 180.478 178.695C179.821 177.642 177.31 174.115 173.329 174.456C173.329 174.456 181.85 178.987 180.251 180.853C178.651 182.719 172.121 177.388 169.988 177.921C167.902 178.443 167.714 183.684 156.108 181.789C155.593 181.705 155.059 181.725 154.557 181.865L144.002 184.816C142.68 185.186 141.323 184.393 140.983 183.064C140.193 179.976 139.472 174.64 142.76 171.643Z" fill="white"/>
<path d="M142.76 171.643C143.229 171.216 143.865 171.014 144.498 171.065C147.064 171.271 154.412 171.829 157.194 171.657C162.113 171.354 176.621 168.28 176.621 168.28C176.957 168.223 177.303 168.242 177.63 168.338L186.614 170.977C186.941 171.074 187.242 171.243 187.493 171.475L192.931 176.472C193.11 176.637 193.262 176.83 193.379 177.045L194.505 179.11C194.983 179.983 194.821 181.068 194.11 181.765L185.113 182.046C184.557 182.063 184.015 181.873 183.593 181.511L180.929 179.226C180.752 179.074 180.601 178.894 180.478 178.695C179.821 177.642 177.31 174.115 173.329 174.456C173.329 174.456 181.85 178.987 180.251 180.853C178.651 182.719 172.121 177.388 169.988 177.921C167.902 178.443 167.714 183.684 156.108 181.789C155.593 181.705 155.059 181.725 154.557 181.865L144.002 184.816C142.68 185.186 141.323 184.393 140.983 183.064C140.193 179.976 139.472 174.64 142.76 171.643Z" stroke="#1A2E35" stroke-width="1.33333" stroke-miterlimit="10" stroke-linecap="round" stroke-linejoin="round"/>
<path d="M175.366 170.191L177.631 170.573C178.734 170.759 179.764 171.248 180.606 171.984L182.958 174.043C183.373 174.406 183.735 174.823 184.037 175.283L185.581 177.645C185.75 177.905 185.942 178.149 186.151 178.379C187.068 179.39 189.592 182.392 186.866 181.992" fill="white"/>
<path d="M175.366 170.191L177.631 170.573C178.734 170.759 179.764 171.248 180.606 171.984L182.958 174.043C183.373 174.406 183.735 174.823 184.037 175.283L185.581 177.645C185.75 177.905 185.942 178.149 186.151 178.379C187.068 179.39 189.592 182.392 186.866 181.992" stroke="#1A2E35" stroke-width="1.33333" stroke-miterlimit="10" stroke-linecap="round" stroke-linejoin="round"/>
<path d="M181.731 170.991L184.071 171.623C184.799 171.82 185.467 172.198 186.012 172.721L187.836 174.473C188.009 174.639 188.169 174.818 188.313 175.011L191.307 178.987C191.307 178.987 192.91 181.803 191.307 181.853" fill="white"/>
<path d="M181.731 170.991L184.071 171.623C184.799 171.82 185.467 172.198 186.012 172.721L187.836 174.473C188.009 174.639 188.169 174.818 188.313 175.011L191.307 178.987C191.307 178.987 192.91 181.803 191.307 181.853" stroke="#1A2E35" stroke-width="1.33333" stroke-miterlimit="10" stroke-linecap="round" stroke-linejoin="round"/>
<path d="M113.718 131.678C114.113 141.148 113.324 152.578 112.601 160.88C112.493 162.121 113.275 163.257 114.472 163.603C119.127 164.947 130.8 168.154 140.315 169.409" stroke="#1A2E35" stroke-width="1.33333" stroke-miterlimit="10" stroke-linecap="round" stroke-linejoin="round"/>
<path d="M113.187 125.067C113.327 126.151 113.441 127.291 113.532 128.476" stroke="#1A2E35" stroke-miterlimit="10" stroke-linecap="round" stroke-linejoin="round"/>
<path d="M109.609 115.081C110.832 116.133 111.732 118.082 112.379 120.646" stroke="#1A2E35" stroke-miterlimit="10" stroke-linecap="round" stroke-linejoin="round"/>
<path d="M162.995 108.75C162.995 108.75 162.328 106.618 158.73 105.418C155.131 104.219 142.68 102.297 136.273 105.418C129.864 108.539 142.137 125.477 142.137 125.477L147.867 133.339L152.932 137.138L155.199 130.384L158.131 127.342C158.131 127.342 164.461 122.145 163.928 117.013C163.395 111.883 162.995 108.75 162.995 108.75Z" fill="white"/>
<path d="M136.824 108.046C145.287 134.617 152.751 135.805 152.751 135.805C155.238 126.032 157.371 128.165 160.747 122.057C163.457 117.158 162.54 110.946 162.073 108.683C161.959 108.133 161.61 107.655 161.109 107.4C152.71 103.125 142.434 104.697 138.196 105.633C137.118 105.871 136.489 106.995 136.824 108.046ZM131.538 108.308C132.538 104.802 137.113 103.819 137.113 103.819C158.97 100.087 163.591 108.032 163.591 108.032C168.033 120.419 163.591 130.383 163.591 130.383C163.591 130.383 157.371 127.809 156.304 130.383C155.238 132.957 153.284 138.471 153.284 138.471C153.284 138.471 149.019 136.338 145.642 131.896C142.267 127.453 134.325 131.896 134.325 131.896C129.229 123.011 131.538 108.308 131.538 108.308Z" fill="#38BFF2"/>
<g opacity="0.399994">
<g opacity="0.399994">
<path opacity="0.399994" d="M136.824 108.046C145.287 134.618 152.751 135.805 152.751 135.805C155.238 126.032 157.371 128.165 160.748 122.058C163.457 117.158 162.54 110.946 162.073 108.683C161.959 108.133 161.61 107.655 161.109 107.4C152.71 103.125 142.434 104.697 138.196 105.633C137.118 105.871 136.489 106.995 136.824 108.046ZM131.539 108.309C132.539 104.802 137.113 103.819 137.113 103.819C158.97 100.087 163.591 108.032 163.591 108.032C168.033 120.419 163.591 130.384 163.591 130.384C163.591 130.384 157.371 127.809 156.305 130.384C155.238 132.957 153.284 138.471 153.284 138.471C153.284 138.471 149.019 136.338 145.643 131.897C142.267 127.454 134.326 131.897 134.326 131.897C129.229 123.011 131.539 108.309 131.539 108.309Z" fill="white"/>
</g>
</g>
<path d="M136.823 108.046C145.287 134.617 152.751 135.805 152.751 135.805C155.238 126.032 157.37 128.165 160.747 122.057C163.456 117.158 162.539 110.946 162.072 108.683C161.958 108.133 161.61 107.655 161.109 107.4C152.71 103.125 142.434 104.697 138.196 105.633C137.118 105.871 136.489 106.995 136.823 108.046ZM131.538 108.308C132.538 104.802 137.112 103.819 137.112 103.819C158.97 100.087 163.591 108.032 163.591 108.032C168.033 120.419 163.591 130.383 163.591 130.383C163.591 130.383 157.37 127.809 156.304 130.383C155.238 132.957 153.284 138.471 153.284 138.471C153.284 138.471 149.019 136.338 145.642 131.896C142.266 127.453 134.325 131.896 134.325 131.896C129.229 123.011 131.538 108.308 131.538 108.308V108.308Z" stroke="#1A2E35" stroke-width="1.33333" stroke-miterlimit="10" stroke-linecap="round" stroke-linejoin="round"/>
<path d="M167.223 67.705C167.223 67.705 186.058 71.4773 175.685 83.7292C164.18 97.3171 167.223 67.705 167.223 67.705Z" fill="#1A2E35"/>
<path d="M167.223 67.705C167.223 67.705 186.058 71.4773 175.685 83.7292C164.18 97.3171 167.223 67.705 167.223 67.705Z" stroke="#1A2E35" stroke-width="1.33333" stroke-miterlimit="10" stroke-linecap="round" stroke-linejoin="round"/>
<path d="M174.651 97.599C174.651 97.599 179.129 79.4733 170.599 70.7655C162.069 62.0587 152.829 60.2813 145.898 64.5462C138.968 68.8111 136.125 79.4733 137.191 84.9824C138.258 90.4905 137.737 110.216 147.238 118.39C156.738 126.565 162.585 124.55 168.868 113.414C172.996 106.098 174.971 103.996 174.651 97.599Z" fill="white"/>
<path d="M174.651 97.599C174.651 97.599 179.129 79.4733 170.599 70.7655C162.069 62.0587 152.829 60.2813 145.898 64.5462C138.968 68.8111 136.125 79.4733 137.191 84.9824C138.258 90.4905 137.737 110.216 147.238 118.39C156.738 126.565 162.585 124.55 168.868 113.414C172.996 106.098 174.971 103.996 174.651 97.599Z" stroke="#1A2E35" stroke-width="1.33333" stroke-miterlimit="10" stroke-linecap="round" stroke-linejoin="round"/>
<path d="M141.637 94.0454C141.637 94.0454 148.798 86.9369 150.991 78.5853C153.184 70.2336 154.427 68.8112 162.602 72.8991C170.777 76.9859 183.531 71.4842 180.195 61.1707C176.688 50.3305 165.979 64.3694 155.672 60.8146C145.364 57.2609 138.054 63.6582 138.038 73.0761C138.038 73.0761 131.81 79.1184 138.054 94.7566L141.637 94.0454Z" fill="#1A2E35"/>
<path d="M141.637 94.0454C141.637 94.0454 148.798 86.9369 150.991 78.5853C153.184 70.2336 154.427 68.8112 162.602 72.8991C170.777 76.9859 183.531 71.4842 180.195 61.1707C176.688 50.3305 165.979 64.3694 155.672 60.8146C145.364 57.2609 138.054 63.6582 138.038 73.0761C138.038 73.0761 131.81 79.1184 138.054 94.7566L141.637 94.0454Z" stroke="#1A2E35" stroke-width="1.33333" stroke-miterlimit="10" stroke-linecap="round" stroke-linejoin="round"/>
<path d="M143.884 92.8531C143.884 92.8531 142.072 82.9171 137.032 83.8383C131.993 84.7606 135.596 99.4211 141.524 97.8217" fill="white"/>
<path d="M143.884 92.8531C143.884 92.8531 142.072 82.9171 137.032 83.8383C131.993 84.7606 135.596 99.4211 141.524 97.8217" stroke="#1A2E35" stroke-width="1.33333" stroke-miterlimit="10" stroke-linecap="round" stroke-linejoin="round"/>
<path d="M167.845 96.222C167.845 96.222 169.819 105.443 169.178 107.028C168.535 108.614 162.429 107.4 162.429 107.4" fill="white"/>
<path d="M167.845 96.222C167.845 96.222 169.819 105.443 169.178 107.028C168.535 108.614 162.429 107.4 162.429 107.4" stroke="#1A2E35" stroke-width="1.33333" stroke-miterlimit="10" stroke-linecap="round" stroke-linejoin="round"/>
<path d="M161.581 111.416C161.581 111.416 156.8 113.304 152.592 107.028L161.581 111.416Z" fill="white"/>
<path d="M161.581 111.416C161.581 111.416 156.8 113.304 152.592 107.028" stroke="#1A2E35" stroke-width="1.33333" stroke-miterlimit="10" stroke-linecap="round" stroke-linejoin="round"/>
<path d="M171.116 96.991C170.938 97.8504 171.162 98.6234 171.617 98.7183C172.071 98.8121 172.586 98.1926 172.764 97.3332C172.942 96.4739 172.718 95.7009 172.263 95.607C171.808 95.5121 171.295 96.1316 171.116 96.991Z" fill="#1A2E35"/>
<path d="M159.423 96.0513C159.245 96.9106 159.469 97.6836 159.924 97.7775C160.378 97.8724 160.893 97.2518 161.071 96.3935C161.249 95.5341 161.025 94.7611 160.57 94.6662C160.115 94.5724 159.601 95.1919 159.423 96.0513Z" fill="#1A2E35"/>
<path d="M168.658 96.5916C168.417 99.0066 170.844 101.228 174.08 101.551C177.316 101.874 180.135 100.178 180.377 97.7634C180.618 95.3474 178.075 94.2811 174.839 93.9581C171.604 93.635 168.9 94.1756 168.658 96.5916Z" stroke="#1A2E35" stroke-width="1.33333" stroke-miterlimit="10" stroke-linecap="round" stroke-linejoin="round"/>
<path d="M153.569 95.083C153.327 97.499 155.756 99.7189 158.992 100.042C162.228 100.366 165.047 98.6697 165.288 96.2548C165.53 93.8387 162.987 92.7736 159.751 92.4505C156.515 92.1274 153.811 92.668 153.569 95.083Z" stroke="#1A2E35" stroke-width="1.33333" stroke-miterlimit="10" stroke-linecap="round" stroke-linejoin="round"/>
<path d="M168.657 96.5917L165.288 96.2548L168.657 96.5917Z" fill="white"/>
<path d="M168.657 96.5917L165.288 96.2548" stroke="#1A2E35" stroke-width="1.33333" stroke-miterlimit="10" stroke-linecap="round" stroke-linejoin="round"/>
<path d="M153.984 93.8735L141.589 86.5646L153.984 93.8735Z" fill="white"/>
<path d="M153.984 93.8735L141.589 86.5646" stroke="#1A2E35" stroke-width="1.33333" stroke-miterlimit="10" stroke-linecap="round" stroke-linejoin="round"/>
<path d="M139.463 105.242L138.878 106.662L139.463 105.242Z" fill="white"/>
<path d="M139.463 105.242L138.878 106.662" stroke="#1A2E35" stroke-width="1.33333" stroke-miterlimit="10" stroke-linecap="round" stroke-linejoin="round"/>
<path d="M175.646 92.6944C175.646 92.6944 173.759 90.2922 171.442 91.4491L175.646 92.6944Z" fill="white"/>
<path d="M175.646 92.6944C175.646 92.6944 173.759 90.2922 171.442 91.4491" stroke="#1A2E35" stroke-width="1.33333" stroke-miterlimit="10" stroke-linecap="round" stroke-linejoin="round"/>
<path d="M156.327 91.6208C156.327 91.6208 159.645 88.4595 162.836 90.6772L156.327 91.6208Z" fill="white"/>
<path d="M156.327 91.6208C156.327 91.6208 159.645 88.4595 162.836 90.6772" stroke="#1A2E35" stroke-width="1.33333" stroke-miterlimit="10" stroke-linecap="round" stroke-linejoin="round"/>
<path d="M171.458 62.3669C166.416 63.9705 157.927 65.9281 150.991 63.8351C140.389 60.6365 143.987 72.5739 141.588 75.8685" stroke="#808080" stroke-width="1.33333" stroke-linecap="round" stroke-linejoin="round"/>
<path d="M175.825 60.7703C175.825 60.7703 174.978 61.1435 173.544 61.6595" stroke="#808080" stroke-width="1.33333" stroke-linecap="round" stroke-linejoin="round"/>
<path d="M163.087 68.3099C162.522 68.1371 161.93 67.9356 161.314 67.7053" stroke="#808080" stroke-width="1.33333" stroke-linecap="round" stroke-linejoin="round"/>
<path d="M174.651 66.901C174.651 66.901 172.398 70.394 165.117 68.8394" stroke="#808080" stroke-width="1.33333" stroke-linecap="round" stroke-linejoin="round"/>
<path d="M147.575 73.7384C147.127 76.7718 145.979 81.171 143.055 85.1597" stroke="#808080" stroke-width="1.33333" stroke-linecap="round" stroke-linejoin="round"/>
<path d="M147.853 69.9664C147.853 69.9664 147.88 70.6829 147.787 71.8739" stroke="#808080" stroke-width="1.33333" stroke-linecap="round" stroke-linejoin="round"/>
<g opacity="0.300003">
<g opacity="0.300003">
<path opacity="0.300003" d="M138.368 184.343C139.227 185.111 138.728 186.527 137.576 186.533C130.377 186.566 110.952 186.614 103.419 186.185C94.0893 185.652 101.21 175.5 108.711 179.376C115.625 182.949 130.168 177.001 138.368 184.343Z" fill="black"/>
</g>
</g>
<path d="M219.561 174.348C219.561 174.348 215.204 162.737 204.265 164.58C193.216 166.442 201.687 175.581 206.946 176.398C206.946 176.398 207.744 173.21 219.561 174.348Z" fill="white"/>
<path d="M219.561 174.348C219.561 174.348 215.204 162.737 204.265 164.58C193.216 166.442 201.687 175.581 206.946 176.398C206.946 176.398 207.744 173.21 219.561 174.348Z" stroke="#1A2E35" stroke-width="1.33333" stroke-miterlimit="10" stroke-linecap="round" stroke-linejoin="round"/>
<path d="M228.825 180.936C230.268 182.379 233.73 182.503 231.402 179.376C228.825 175.916 225.92 174.756 223.938 173.871C218.749 171.555 216.726 172.019 212.032 170.99C207.337 169.962 206.46 171.871 204.835 172.761C200.966 174.882 200.037 175.25 199.059 177.382C198.082 179.515 197.016 182.29 200.037 182.29C202.791 182.29 202.969 177.737 205.634 177.915C208.3 178.092 209.633 182.29 211.499 182.29H212.21C213.809 182.29 213.895 180.959 212.917 178.868C211.938 176.777 210.877 174.894 210.877 174.894C210.877 174.894 213.195 175.949 214.475 178.67C215.755 181.391 215.991 182.537 218.343 182.537C220.695 182.537 220.533 180.79 218.192 176.931C218.192 176.931 220.3 178.089 221.453 180.267C222.605 182.447 223.206 182.29 224.716 182.29C226.692 182.29 226.559 179.025 223.049 176.893C223.049 176.893 223.827 175.938 228.825 180.936Z" fill="white"/>
<path d="M228.825 180.936C230.268 182.379 233.73 182.503 231.402 179.376C228.825 175.916 225.92 174.756 223.938 173.871C218.749 171.555 216.726 172.019 212.032 170.99C207.337 169.962 206.46 171.871 204.835 172.761C200.966 174.882 200.037 175.25 199.059 177.382C198.082 179.515 197.016 182.29 200.037 182.29C202.791 182.29 202.969 177.737 205.634 177.915C208.3 178.092 209.633 182.29 211.499 182.29H212.21C213.809 182.29 213.895 180.959 212.917 178.868C211.938 176.777 210.877 174.894 210.877 174.894C210.877 174.894 213.195 175.949 214.475 178.67C215.755 181.391 215.991 182.537 218.343 182.537C220.695 182.537 220.533 180.79 218.192 176.931C218.192 176.931 220.3 178.089 221.453 180.267C222.605 182.447 223.206 182.29 224.716 182.29C226.692 182.29 226.559 179.025 223.049 176.893C223.049 176.893 223.827 175.938 228.825 180.936Z" stroke="#1A2E35" stroke-width="1.33333" stroke-miterlimit="10" stroke-linecap="round" stroke-linejoin="round"/>
<path d="M215.117 173.139C215.117 173.139 216.497 173.073 217.362 175.405L215.117 173.139Z" fill="white"/>
<path d="M215.117 173.139C215.117 173.139 216.497 173.073 217.362 175.405" stroke="#1A2E35" stroke-miterlimit="10" stroke-linecap="round" stroke-linejoin="round"/>
<path d="M39.9179 72.7538C33.1165 78.0998 26.5603 83.9064 20.2909 90.1758" stroke="#1A2E35" stroke-miterlimit="10" stroke-linecap="round" stroke-linejoin="round"/>
<path d="M47.3573 67.1594C46.0533 68.0966 44.7579 69.0498 43.4709 70.019" stroke="#1A2E35" stroke-miterlimit="10" stroke-linecap="round" stroke-linejoin="round"/>
<path d="M54.7872 62.0479C53.4501 62.9275 52.1206 63.8231 50.7995 64.7347" stroke="#1A2E35" stroke-miterlimit="10" stroke-linecap="round" stroke-linejoin="round"/>
<path d="M109.333 36.2447C91.8963 41.6792 75.0064 49.3549 59.1165 59.2739" stroke="#1A2E35" stroke-miterlimit="10" stroke-linecap="round" stroke-linejoin="round"/>
<path d="M120.981 32.9674C118.822 33.5101 116.669 34.0869 114.523 34.6979" stroke="#1A2E35" stroke-miterlimit="10" stroke-linecap="round" stroke-linejoin="round"/>
<path d="M132.959 30.3102C130.615 30.7612 128.278 31.2516 125.948 31.7794" stroke="#1A2E35" stroke-miterlimit="10" stroke-linecap="round" stroke-linejoin="round"/>
<path d="M143.634 28.5281C141.613 28.815 139.596 29.1284 137.58 29.4717" stroke="#1A2E35" stroke-miterlimit="10" stroke-linecap="round" stroke-linejoin="round"/>
<path d="M207.941 28.9576C188.177 25.889 168.072 25.5457 148.232 27.9265" stroke="#1A2E35" stroke-miterlimit="10" stroke-linecap="round" stroke-linejoin="round"/>
<path d="M216.739 30.5081C214.924 30.1499 213.106 29.8151 211.284 29.5037" stroke="#1A2E35" stroke-miterlimit="10" stroke-linecap="round" stroke-linejoin="round"/>
<path d="M225.273 32.3713C223.457 31.9363 221.637 31.5258 219.813 31.1377" stroke="#1A2E35" stroke-miterlimit="10" stroke-linecap="round" stroke-linejoin="round"/>
<path d="M235.77 35.163C233.918 34.6203 232.059 34.1031 230.195 33.6106" stroke="#1A2E35" stroke-miterlimit="10" stroke-linecap="round" stroke-linejoin="round"/>
<path d="M299.219 65.6646C281.267 53.0778 261.839 43.5149 241.646 36.9748" stroke="#1A2E35" stroke-miterlimit="10" stroke-linecap="round" stroke-linejoin="round"/>
<path d="M307.792 71.9937C306.124 70.6982 304.441 69.4294 302.746 68.1894" stroke="#1A2E35" stroke-miterlimit="10" stroke-linecap="round" stroke-linejoin="round"/>
<path d="M316.388 79.0282C314.56 77.4534 312.711 75.9138 310.844 74.4083" stroke="#1A2E35" stroke-miterlimit="10" stroke-linecap="round" stroke-linejoin="round"/>
<path d="M328.391 90.1757C325.89 87.6744 323.343 85.2466 320.753 82.8924" stroke="#1A2E35" stroke-miterlimit="10" stroke-linecap="round" stroke-linejoin="round"/>
<path d="M245.012 51.2269C245.012 65.8757 256.887 77.7512 271.536 77.7512C286.186 77.7512 298.062 65.8757 298.062 51.2269C298.062 36.5771 286.186 24.7026 271.536 24.7026C256.887 24.7026 245.012 36.5771 245.012 51.2269Z" fill="#38BFF2"/>
<g opacity="0.300003">
<g opacity="0.300003">
<path opacity="0.300003" d="M245.419 50.5931C245.419 65.2418 257.295 77.1174 271.943 77.1174C286.593 77.1174 298.469 65.2418 298.469 50.5931C298.469 35.9432 286.593 24.0687 271.943 24.0687C257.295 24.0687 245.419 35.9432 245.419 50.5931Z" fill="white"/>
</g>
</g>
<path d="M245.012 51.227C245.012 65.8757 256.888 77.7513 271.537 77.7513C286.187 77.7513 298.062 65.8757 298.062 51.227C298.062 36.5771 286.187 24.7027 271.537 24.7027C256.888 24.7027 245.012 36.5771 245.012 51.227Z" stroke="#1A2E35" stroke-miterlimit="10" stroke-linecap="round" stroke-linejoin="round"/>
<path d="M322.934 125.897H338.237C345.279 125.897 350.987 120.189 350.987 113.147V97.8438C350.987 90.8025 345.279 85.094 338.237 85.094H322.934C315.892 85.094 310.184 90.8025 310.184 97.8438V113.147C310.184 120.189 315.892 125.897 322.934 125.897Z" fill="#38BFF2"/>
<path d="M322.934 125.897H338.237C345.279 125.897 350.987 120.189 350.987 113.147V97.8438C350.987 90.8025 345.279 85.094 338.237 85.094H322.934C315.892 85.094 310.184 90.8025 310.184 97.8438V113.147C310.184 120.189 315.892 125.897 322.934 125.897Z" stroke="#1A2E35" stroke-miterlimit="10" stroke-linecap="round" stroke-linejoin="round"/>
<path d="M345.371 106.482V104.51L337.214 100.991V103.124L342.839 105.496L337.214 107.868V110.001L345.371 106.482Z" fill="white"/>
<path d="M345.371 106.482V104.51L337.214 100.991V103.124L342.839 105.496L337.214 107.868V110.001L345.371 106.482Z" stroke="#1A2E35" stroke-miterlimit="10" stroke-linecap="round" stroke-linejoin="round"/>
<path d="M328.174 96.1663H325.642L332.999 114.825H335.53L328.174 96.1663Z" fill="white"/>
<path d="M328.174 96.1663H325.642L332.999 114.825H335.53L328.174 96.1663Z" stroke="#1A2E35" stroke-miterlimit="10" stroke-linecap="round" stroke-linejoin="round"/>
<path d="M323.956 107.868L318.332 105.496L323.956 103.124V100.991L315.8 104.51V106.482L323.956 110.001V107.868Z" fill="white"/>
<path d="M323.956 107.868L318.332 105.496L323.956 103.124V100.991L315.8 104.51V106.482L323.956 110.001V107.868Z" stroke="#1A2E35" stroke-miterlimit="10" stroke-linecap="round" stroke-linejoin="round"/>
<path d="M60.7125 45.2253C60.7125 57.7289 70.849 67.8654 83.3515 67.8654C95.8561 67.8654 105.993 57.7289 105.993 45.2253C105.993 32.7207 95.8561 22.5853 83.3515 22.5853C70.849 22.5853 60.7125 32.7207 60.7125 45.2253Z" fill="#38BFF2"/>
<g opacity="0.199997">
<g opacity="0.199997">
<path opacity="0.199997" d="M60.5653 45.6644C60.5653 58.168 70.7018 68.3045 83.2043 68.3045C95.7089 68.3045 105.845 58.168 105.845 45.6644C105.845 33.1598 95.7089 23.0244 83.2043 23.0244C70.7018 23.0244 60.5653 33.1598 60.5653 45.6644Z" fill="black"/>
</g>
</g>
<path d="M60.7124 45.2254C60.7124 57.7289 70.8489 67.8655 83.3514 67.8655C95.856 67.8655 105.993 57.7289 105.993 45.2254C105.993 32.7208 95.856 22.5853 83.3514 22.5853C70.8489 22.5853 60.7124 32.7208 60.7124 45.2254Z" stroke="#1A2E35" stroke-miterlimit="10" stroke-linecap="round" stroke-linejoin="round"/>
<path d="M170.135 50.4576H190.593C198.6 50.4576 205.092 43.9654 205.092 35.9571V15.5006C205.092 7.49226 198.6 1.00005 190.593 1.00005H170.135C162.127 1.00005 155.635 7.49226 155.635 15.5006V35.9571C155.635 43.9654 162.127 50.4576 170.135 50.4576Z" fill="#38BFF2"/>
<path d="M170.135 50.4576H190.593C198.6 50.4576 205.092 43.9654 205.092 35.9571V15.5006C205.092 7.49225 198.6 1.00005 190.593 1.00005H170.135C162.127 1.00005 155.635 7.49225 155.635 15.5006V35.9571C155.635 43.9654 162.127 50.4576 170.135 50.4576Z" stroke="#1A2E35" stroke-miterlimit="10" stroke-linecap="round" stroke-linejoin="round"/>
<path d="M0.917667 93.1079C0.917667 105.579 11.0265 115.689 23.4991 115.689C35.9707 115.689 46.0795 105.579 46.0795 93.1079C46.0795 80.6363 35.9707 70.5265 23.4991 70.5265C11.0265 70.5265 0.917667 80.6363 0.917667 93.1079Z" fill="#38BFF2"/>
<g opacity="0.300003">
<g opacity="0.300003">
<path opacity="0.300003" d="M1.51123 93.5641C1.51123 106.036 11.62 116.146 24.0927 116.146C36.5642 116.146 46.673 106.036 46.673 93.5641C46.673 81.0925 36.5642 70.9826 24.0927 70.9826C11.62 70.9826 1.51123 81.0925 1.51123 93.5641Z" fill="white"/>
</g>
</g>
<path d="M0.918522 93.1077C0.918522 105.579 11.0273 115.689 23.5 115.689C35.9715 115.689 46.0803 105.579 46.0803 93.1077C46.0803 80.6362 35.9715 70.5263 23.5 70.5263C11.0273 70.5263 0.918522 80.6362 0.918522 93.1077Z" stroke="#1A2E35" stroke-miterlimit="10" stroke-linecap="round" stroke-linejoin="round"/>
<path d="M290.448 353.137H294.399L295.466 196.131H290.448V353.137Z" fill="#868686"/>
<path d="M290.448 353.137H294.399L295.466 196.131H290.448V353.137Z" stroke="#1A2E35" stroke-width="1.33333" stroke-miterlimit="10" stroke-linecap="round" stroke-linejoin="round"/>
<path d="M286.497 353.137H290.448V196.131H285.431L286.497 353.137Z" fill="#9A9A9A"/>
<path d="M286.497 353.137H290.448V196.131H285.431L286.497 353.137Z" stroke="#1A2E35" stroke-width="1.33333" stroke-miterlimit="10" stroke-linecap="round" stroke-linejoin="round"/>
<path d="M64.6678 196.131H335.707V186.518H64.6678V196.131Z" fill="#1A2E35" stroke="#1A2E35" stroke-width="1.33333" stroke-miterlimit="10" stroke-linecap="round" stroke-linejoin="round"/>
<path d="M8.02265 196.131H68.7107V186.518H8.02265V196.131Z" fill="#868686" stroke="#1A2E35" stroke-width="1.33333" stroke-miterlimit="10" stroke-linecap="round" stroke-linejoin="round"/>
<path d="M52.3678 211.979H321.826V196.13H52.3678V211.979Z" fill="#38BFF2" stroke="#1A2E35" stroke-width="1.33333" stroke-miterlimit="10"/>
<path d="M52.3678 211.979H20.9911V196.13H52.3678V211.979Z" fill="#38BFF2"/>
<g opacity="0.300003">
<path opacity="0.300003" d="M52.3672 211.979H20.9906V196.131H52.3672V211.979Z" fill="black"/>
</g>
<path d="M52.3678 211.979H20.9911V196.13H52.3678V211.979Z" stroke="#1A2E35" stroke-width="1.33333" stroke-miterlimit="10"/>
<path d="M52.367 353.137H56.3173L57.3835 196.131H52.367V353.137Z" fill="#868686"/>
<path d="M52.367 353.137H56.3173L57.3835 196.131H52.367V353.137Z" stroke="#1A2E35" stroke-width="1.33333" stroke-miterlimit="10" stroke-linecap="round" stroke-linejoin="round"/>
<path d="M48.4158 353.137H52.3672V196.131H47.3496L48.4158 353.137Z" fill="#9A9A9A"/>
<path d="M48.4158 353.137H52.3672V196.131H47.3496L48.4158 353.137Z" stroke="#1A2E35" stroke-width="1.33333" stroke-miterlimit="10" stroke-linecap="round" stroke-linejoin="round"/>
<path d="M321.825 353.137H325.776L326.843 196.131H321.825V353.137Z" fill="#868686"/>
<path d="M321.825 353.137H325.776L326.843 196.131H321.825V353.137Z" stroke="#1A2E35" stroke-width="1.33333" stroke-miterlimit="10" stroke-linecap="round" stroke-linejoin="round"/>
<path d="M317.873 353.137H321.824V196.131H316.807L317.873 353.137Z" fill="#9A9A9A"/>
<path d="M317.873 353.137H321.824V196.131H316.807L317.873 353.137Z" stroke="#1A2E35" stroke-width="1.33333" stroke-miterlimit="10" stroke-linecap="round" stroke-linejoin="round"/>
<path d="M20.9909 353.137H24.9413L26.0075 196.131H20.9909V353.137Z" fill="#868686"/>
<path d="M20.9909 353.137H24.9413L26.0075 196.131H20.9909V353.137Z" stroke="#1A2E35" stroke-width="1.33333" stroke-miterlimit="10" stroke-linecap="round" stroke-linejoin="round"/>
<path d="M17.0395 353.137H20.9909V196.131H15.9733L17.0395 353.137Z" fill="#9A9A9A"/>
<path d="M17.0395 353.137H20.9909V196.131H15.9733L17.0395 353.137Z" stroke="#1A2E35" stroke-width="1.33333" stroke-miterlimit="10" stroke-linecap="round" stroke-linejoin="round"/>
<path d="M160.556 185.452H192.322C192.971 185.452 193.498 184.925 193.498 184.275V181.653L159.379 182.719V184.275C159.379 184.925 159.907 185.452 160.556 185.452Z" fill="#868686"/>
<path d="M160.556 185.452H192.322C192.971 185.452 193.498 184.925 193.498 184.275V181.653L159.379 182.719V184.275C159.379 184.925 159.907 185.452 160.556 185.452Z" stroke="#1A2E35" stroke-width="1.33333" stroke-miterlimit="10" stroke-linecap="round" stroke-linejoin="round"/>
<path d="M197.041 185.452H260.901C261.925 185.452 262.923 184.694 263.234 183.68L276.941 139.176C277.318 137.955 276.559 136.872 275.328 136.872H211.467C210.445 136.872 209.447 137.63 209.134 138.644L195.427 183.148C195.051 184.367 195.81 185.452 197.041 185.452Z" fill="#9A9A9A"/>
<path d="M197.041 185.452H260.901C261.925 185.452 262.923 184.694 263.234 183.68L276.941 139.176C277.318 137.955 276.559 136.872 275.328 136.872H211.467C210.445 136.872 209.447 137.63 209.134 138.644L195.427 183.148C195.051 184.367 195.81 185.452 197.041 185.452Z" stroke="#1A2E35" stroke-width="1.33333" stroke-miterlimit="10" stroke-linecap="round" stroke-linejoin="round"/>
<path d="M192.558 183.148L206.265 138.644C206.578 137.63 207.576 136.872 208.598 136.872H211.468C210.445 136.872 209.447 137.63 209.135 138.644L195.427 183.148C195.051 184.368 195.81 185.452 197.042 185.452H194.172C192.941 185.452 192.182 184.368 192.558 183.148Z" fill="#868686"/>
<path d="M192.558 183.148L206.265 138.644C206.578 137.63 207.576 136.872 208.598 136.872H211.468C210.445 136.872 209.447 137.63 209.135 138.644L195.427 183.148C195.051 184.368 195.81 185.452 197.042 185.452H194.172C192.941 185.452 192.182 184.368 192.558 183.148Z" stroke="#1A2E35" stroke-width="1.33333" stroke-miterlimit="10" stroke-linecap="round" stroke-linejoin="round"/>
<path d="M232.234 161.161C231.967 163.343 233.518 165.112 235.7 165.112C237.881 165.112 239.867 163.343 240.135 161.161C240.403 158.98 238.851 157.211 236.67 157.211C234.488 157.211 232.502 158.98 232.234 161.161Z" fill="white"/>
<path d="M232.234 161.161C231.967 163.343 233.518 165.112 235.7 165.112C237.881 165.112 239.867 163.343 240.135 161.161C240.403 158.98 238.851 157.211 236.67 157.211C234.488 157.211 232.502 158.98 232.234 161.161Z" stroke="#1A2E35" stroke-width="1.33333" stroke-miterlimit="10" stroke-linecap="round" stroke-linejoin="round"/>
<path d="M87.2398 53.0355H87.6524C88.5545 53.0355 89.0181 52.6237 89.0181 51.2069V47.3405C89.0181 46.4125 89.3531 45.4335 90.5901 45.0726V45.0216C89.3531 44.6608 89.0181 43.6803 89.0181 42.753V38.8873C89.0181 37.4698 88.5545 37.058 87.6524 37.058H87.2398V34.7376H88.6831C90.2803 34.7376 91.544 35.6397 91.544 37.5992V42.3404C91.544 43.5265 91.8782 43.8873 93.167 43.8873V46.2062C91.8782 46.2062 91.544 46.567 91.544 47.7523V52.495C91.544 54.453 90.2803 55.3551 88.6831 55.3551H87.2398V53.0355Z" fill="white"/>
<path d="M86.9611 53.3069H87.3993C88.3574 53.3069 88.8497 52.8793 88.8497 51.4087V47.3949C88.8497 46.4316 89.2055 45.4153 90.5193 45.0408V44.9878C89.2055 44.6132 88.8497 43.5954 88.8497 42.6328V38.6199C88.8497 37.1485 88.3574 36.7209 87.3993 36.7209H86.9611V34.3122H88.494C90.1902 34.3122 91.5323 35.2487 91.5323 37.2828V42.2045C91.5323 43.4358 91.8872 43.8103 93.256 43.8103V46.2175C91.8872 46.2175 91.5323 46.592 91.5323 47.8225V52.7458C91.5323 54.7783 90.1902 55.7148 88.494 55.7148H86.9611V53.3069Z" stroke="#1A2E35" stroke-miterlimit="10" stroke-linecap="round" stroke-linejoin="round"/>
<path d="M80.3883 53.0355H79.9757C79.0736 53.0355 78.61 52.6237 78.61 51.2069V47.3405C78.61 46.4125 78.275 45.4335 77.038 45.0726V45.0216C78.275 44.6608 78.61 43.6803 78.61 42.753V38.8873C78.61 37.4698 79.0736 37.058 79.9757 37.058H80.3883V34.7376H78.9449C77.3478 34.7376 76.0841 35.6397 76.0841 37.5992V42.3404C76.0841 43.5265 75.7499 43.8873 74.4611 43.8873V46.2062C75.7499 46.2062 76.0841 46.567 76.0841 47.7523V52.495C76.0841 54.453 77.3478 55.3551 78.9449 55.3551H80.3883V53.0355Z" fill="white"/>
<path d="M80.6664 53.3069H80.2282C79.2702 53.3069 78.7778 52.8793 78.7778 51.4087V47.3949C78.7778 46.4316 78.4221 45.4153 77.1083 45.0408V44.9878C78.4221 44.6132 78.7778 43.5954 78.7778 42.6328V38.6199C78.7778 37.1485 79.2702 36.7209 80.2282 36.7209H80.6664V34.3122H79.1336C77.4374 34.3122 76.0953 35.2487 76.0953 37.2828V42.2045C76.0953 43.4358 75.7403 43.8103 74.3716 43.8103V46.2175C75.7403 46.2175 76.0953 46.592 76.0953 47.8225V52.7458C76.0953 54.7783 77.4374 55.7148 79.1336 55.7148H80.6664V53.3069Z" stroke="#1A2E35" stroke-miterlimit="10" stroke-linecap="round" stroke-linejoin="round"/>
<mask id="path-192-outside-1_21_1460" maskUnits="userSpaceOnUse" x="172.939" y="19.2898" width="20" height="20" fill="black">
<rect fill="white" x="172.939" y="19.2898" width="20" height="20"/>
<path fill-rule="evenodd" clip-rule="evenodd" d="M185.299 32.9212V35.6619C185.299 37.5288 182.074 38.0055 180.295 38.0055H177.117C175.621 37.8996 173.939 37.4097 173.939 35.6619V31.6634C173.939 28.9578 176.132 26.7644 178.838 26.7644H179.778C183.354 26.7644 186.253 23.8656 186.253 20.2898H189.113C189.894 20.4752 191.456 21.8469 191.456 25.8508C191.456 30.2375 186.866 31.7295 182.48 31.7295H179.58V32.7226H185.299V32.9212ZM183.314 36.0195C183.665 36.0195 183.949 35.7349 183.949 35.3839C183.949 35.0329 183.665 34.7484 183.314 34.7484C182.963 34.7484 182.678 35.0329 182.678 35.3839C182.678 35.7349 182.963 36.0195 183.314 36.0195Z"/>
</mask>
<path fill-rule="evenodd" clip-rule="evenodd" d="M185.299 32.9212V35.6619C185.299 37.5288 182.074 38.0055 180.295 38.0055H177.117C175.621 37.8996 173.939 37.4097 173.939 35.6619V31.6634C173.939 28.9578 176.132 26.7644 178.838 26.7644H179.778C183.354 26.7644 186.253 23.8656 186.253 20.2898H189.113C189.894 20.4752 191.456 21.8469 191.456 25.8508C191.456 30.2375 186.866 31.7295 182.48 31.7295H179.58V32.7226H185.299V32.9212ZM183.314 36.0195C183.665 36.0195 183.949 35.7349 183.949 35.3839C183.949 35.0329 183.665 34.7484 183.314 34.7484C182.963 34.7484 182.678 35.0329 182.678 35.3839C182.678 35.7349 182.963 36.0195 183.314 36.0195Z" fill="white"/>
<path d="M177.117 38.0055L177.046 39.003L177.081 39.0055H177.117V38.0055ZM186.253 20.2898V19.2898H185.253V20.2898H186.253ZM189.113 20.2898L189.344 19.3168L189.23 19.2898H189.113V20.2898ZM179.58 31.7295V30.7295H178.58V31.7295H179.58ZM179.58 32.7226H178.58V33.7226H179.58V32.7226ZM185.299 32.7226H186.299V31.7226H185.299V32.7226ZM186.299 35.6619V32.9212H184.299V35.6619H186.299ZM180.295 39.0055C181.247 39.0055 182.618 38.8808 183.788 38.4798C184.868 38.1098 186.299 37.3038 186.299 35.6619H184.299C184.299 35.887 184.118 36.2527 183.14 36.5878C182.253 36.8918 181.122 37.0055 180.295 37.0055V39.0055ZM177.117 39.0055H180.295V37.0055H177.117V39.0055ZM172.939 35.6619C172.939 36.9385 173.591 37.8049 174.463 38.3133C175.268 38.7827 176.245 38.9463 177.046 39.003L177.187 37.008C176.492 36.9588 175.88 36.8244 175.471 36.5855C175.128 36.3855 174.939 36.1331 174.939 35.6619H172.939ZM172.939 31.6634V35.6619H174.939V31.6634H172.939ZM178.838 25.7644C175.58 25.7644 172.939 28.4055 172.939 31.6634H174.939C174.939 29.5101 176.685 27.7644 178.838 27.7644V25.7644ZM179.778 25.7644H178.838V27.7644H179.778V25.7644ZM185.253 20.2898C185.253 23.3133 182.802 25.7644 179.778 25.7644V27.7644C183.906 27.7644 187.253 24.4179 187.253 20.2898H185.253ZM189.113 19.2898H186.253V21.2898H189.113V19.2898ZM192.456 25.8508C192.456 21.6734 190.807 19.664 189.344 19.3168L188.882 21.2628C188.882 21.2627 188.884 21.2632 188.887 21.2644C188.891 21.2657 188.897 21.2676 188.904 21.2704C188.919 21.2761 188.939 21.2852 188.965 21.2988C189.016 21.3262 189.083 21.37 189.162 21.4367C189.319 21.5699 189.514 21.7887 189.706 22.1292C190.09 22.8099 190.456 23.9741 190.456 25.8508H192.456ZM182.48 32.7295C184.76 32.7295 187.191 32.3456 189.09 31.3139C191.043 30.2531 192.456 28.4796 192.456 25.8508H190.456C190.456 27.6086 189.575 28.7745 188.135 29.5565C186.643 30.3674 184.586 30.7295 182.48 30.7295V32.7295ZM179.58 32.7295H182.48V30.7295H179.58V32.7295ZM180.58 32.7226V31.7295H178.58V32.7226H180.58ZM185.299 31.7226H179.58V33.7226H185.299V31.7226ZM186.299 32.9212V32.7226H184.299V32.9212H186.299ZM182.949 35.3839C182.949 35.1827 183.112 35.0195 183.314 35.0195V37.0195C184.217 37.0195 184.949 36.2872 184.949 35.3839H182.949ZM183.314 35.7484C183.112 35.7484 182.949 35.5852 182.949 35.3839H184.949C184.949 34.4807 184.217 33.7484 183.314 33.7484V35.7484ZM183.678 35.3839C183.678 35.5852 183.515 35.7484 183.314 35.7484V33.7484C182.41 33.7484 181.678 34.4807 181.678 35.3839H183.678ZM183.314 35.0195C183.515 35.0195 183.678 35.1827 183.678 35.3839H181.678C181.678 36.2872 182.41 37.0195 183.314 37.0195V35.0195Z" fill="#1A2E35" mask="url(#path-192-outside-1_21_1460)"/>
<mask id="path-194-outside-2_21_1460" maskUnits="userSpaceOnUse" x="166.141" y="12.9679" width="20" height="20" fill="black">
<rect fill="white" x="166.141" y="12.9679" width="20" height="20"/>
<path fill-rule="evenodd" clip-rule="evenodd" d="M173.78 19.3365L173.78 16.5958C173.78 14.7289 177.006 14.2522 178.785 14.2522L181.963 14.2522C183.459 14.3581 185.141 14.848 185.141 16.5958L185.141 20.5943C185.141 23.2999 182.947 25.4933 180.242 25.4933L179.302 25.4933C175.726 25.4933 172.827 28.3921 172.827 31.9679L169.967 31.9679C169.186 31.7825 167.624 30.4108 167.624 26.4069C167.624 22.0202 172.214 20.5282 176.6 20.5282L179.5 20.5282L179.5 19.5351L173.78 19.5351L173.78 19.3365ZM175.766 16.2383C175.415 16.2383 175.131 16.5228 175.131 16.8738C175.131 17.2248 175.415 17.5094 175.766 17.5094C176.117 17.5094 176.402 17.2248 176.402 16.8738C176.402 16.5228 176.117 16.2383 175.766 16.2383Z"/>
</mask>
<path fill-rule="evenodd" clip-rule="evenodd" d="M173.78 19.3365L173.78 16.5958C173.78 14.7289 177.006 14.2522 178.785 14.2522L181.963 14.2522C183.459 14.3581 185.141 14.848 185.141 16.5958L185.141 20.5943C185.141 23.2999 182.947 25.4933 180.242 25.4933L179.302 25.4933C175.726 25.4933 172.827 28.3921 172.827 31.9679L169.967 31.9679C169.186 31.7825 167.624 30.4108 167.624 26.4069C167.624 22.0202 172.214 20.5282 176.6 20.5282L179.5 20.5282L179.5 19.5351L173.78 19.5351L173.78 19.3365ZM175.766 16.2383C175.415 16.2383 175.131 16.5228 175.131 16.8738C175.131 17.2248 175.415 17.5094 175.766 17.5094C176.117 17.5094 176.402 17.2248 176.402 16.8738C176.402 16.5228 176.117 16.2383 175.766 16.2383Z" fill="white"/>
<path d="M173.78 16.5958L174.78 16.5958L173.78 16.5958ZM173.78 19.3365L172.78 19.3365L173.78 19.3365ZM181.963 14.2522L182.034 13.2547L181.998 13.2522L181.963 13.2522L181.963 14.2522ZM172.827 31.9679L172.827 32.9679L173.827 32.9679L173.827 31.9679L172.827 31.9679ZM169.967 31.9679L169.736 32.9409L169.85 32.9679L169.967 32.9679L169.967 31.9679ZM179.5 20.5282L179.5 21.5282L180.5 21.5282L180.5 20.5282L179.5 20.5282ZM179.5 19.5351L180.5 19.5351L180.5 18.5351L179.5 18.5351L179.5 19.5351ZM173.78 19.5351L172.78 19.5351L172.78 20.5351L173.78 20.5351L173.78 19.5351ZM172.78 16.5958L172.78 19.3365L174.78 19.3365L174.78 16.5958L172.78 16.5958ZM178.785 13.2522C177.833 13.2522 176.462 13.3769 175.291 13.7779C174.212 14.1479 172.78 14.9539 172.78 16.5958L174.78 16.5958C174.78 16.3707 174.962 16.005 175.94 15.6699C176.827 15.3659 177.958 15.2522 178.785 15.2522L178.785 13.2522ZM181.963 13.2522L178.785 13.2522L178.785 15.2522L181.963 15.2522L181.963 13.2522ZM186.141 16.5958C186.141 15.3192 185.488 14.4528 184.617 13.9444C183.812 13.475 182.835 13.3114 182.034 13.2547L181.892 15.2497C182.588 15.2989 183.199 15.4333 183.609 15.6722C183.952 15.8722 184.141 16.1246 184.141 16.5958L186.141 16.5958ZM186.141 20.5943L186.141 16.5958L184.141 16.5958L184.141 20.5943L186.141 20.5943ZM180.242 26.4933C183.5 26.4933 186.141 23.8521 186.141 20.5943L184.141 20.5943C184.141 22.7476 182.395 24.4933 180.242 24.4933L180.242 26.4933ZM179.302 26.4933L180.242 26.4933L180.242 24.4933L179.302 24.4933L179.302 26.4933ZM173.827 31.9679C173.827 28.9444 176.278 26.4933 179.302 26.4933L179.302 24.4933C175.174 24.4933 171.827 27.8398 171.827 31.9679L173.827 31.9679ZM169.967 32.9679L172.827 32.9679L172.827 30.9679L169.967 30.9679L169.967 32.9679ZM166.624 26.4069C166.624 30.5843 168.273 32.5936 169.736 32.9409L170.198 30.9949C170.198 30.9949 170.196 30.9945 170.192 30.9933C170.188 30.992 170.183 30.9901 170.176 30.9873C170.161 30.9815 170.141 30.9725 170.115 30.9589C170.064 30.9314 169.997 30.8877 169.918 30.8209C169.761 30.6878 169.565 30.469 169.374 30.1285C168.99 29.4477 168.624 28.2836 168.624 26.4069L166.624 26.4069ZM176.6 19.5282C174.32 19.5282 171.889 19.912 169.99 20.9438C168.037 22.0046 166.624 23.7781 166.624 26.4069L168.624 26.4069C168.624 24.6491 169.505 23.4832 170.944 22.7012C172.437 21.8903 174.494 21.5282 176.6 21.5282L176.6 19.5282ZM179.5 19.5282L176.6 19.5282L176.6 21.5282L179.5 21.5282L179.5 19.5282ZM178.5 19.5351L178.5 20.5282L180.5 20.5282L180.5 19.5351L178.5 19.5351ZM173.78 20.5351L179.5 20.5351L179.5 18.5351L173.78 18.5351L173.78 20.5351ZM172.78 19.3365L172.78 19.5351L174.78 19.5351L174.78 19.3365L172.78 19.3365ZM176.131 16.8738C176.131 17.0751 175.968 17.2383 175.766 17.2383L175.766 15.2383C174.863 15.2383 174.131 15.9705 174.131 16.8738L176.131 16.8738ZM175.766 16.5094C175.968 16.5094 176.131 16.6725 176.131 16.8738L174.131 16.8738C174.131 17.7771 174.863 18.5094 175.766 18.5094L175.766 16.5094ZM175.402 16.8738C175.402 16.6725 175.565 16.5094 175.766 16.5094L175.766 18.5094C176.67 18.5094 177.402 17.7771 177.402 16.8738L175.402 16.8738ZM175.766 17.2383C175.565 17.2383 175.402 17.0751 175.402 16.8738L177.402 16.8738C177.402 15.9705 176.67 15.2383 175.766 15.2383L175.766 17.2383Z" fill="#1A2E35" mask="url(#path-194-outside-2_21_1460)"/>
<rect x="14.6997" y="82.9123" width="18.6256" height="4.77692" rx="1.5" fill="white" stroke="#1A2E35"/>
<rect x="14.6997" y="90.4662" width="18.6256" height="6.0359" rx="1.5" fill="white" stroke="#1A2E35"/>
<rect x="14.6997" y="99.279" width="18.6256" height="4.77692" rx="1.5" fill="white" stroke="#1A2E35"/>
<path d="M258.229 50.2358C258.11 50.7807 258.217 51.2714 258.556 51.7335M258.229 50.2358L275.615 47.2572L274.121 45.7557M258.229 50.2358L258.32 49.8168M258.229 50.2358L258.32 49.8168M258.556 51.7335C258.998 52.3349 270.955 64.1898 271.297 64.3651C271.66 64.551 272.253 64.5812 272.696 64.4363M258.556 51.7335L258.959 51.4377C258.959 51.4377 258.959 51.4377 258.959 51.4377C258.959 51.4377 258.959 51.4377 258.959 51.4377L258.556 51.7335ZM272.696 64.4363C272.934 64.3583 274.109 63.2203 279.282 58.0581C284.108 53.2413 285.613 51.6987 285.728 51.4485C285.936 50.9954 285.929 50.3564 285.713 49.9256M272.696 64.4363L272.54 63.9611C272.51 63.9708 272.493 63.9808 272.493 63.9808C272.493 63.9807 272.498 63.978 272.508 63.9711M272.696 64.4363L272.54 63.961C272.529 63.9645 272.519 63.9679 272.508 63.9711M285.713 49.9256C285.49 49.4827 273.184 37.169 272.781 36.9862M285.713 49.9256L285.266 50.1502C285.266 50.1502 285.266 50.1502 285.266 50.1502L285.713 49.9256ZM272.781 36.9862C272.432 36.8278 271.84 36.7824 271.463 36.8853M272.781 36.9862L272.575 37.4415C272.575 37.4415 272.575 37.4415 272.575 37.4415L272.781 36.9862ZM271.463 36.8853C271.228 36.9496 270.902 37.2338 269.723 38.403M271.463 36.8853L271.595 37.3676M271.463 36.8853L271.595 37.3676M269.723 38.403L268.629 39.4896L268.982 39.8435M269.723 38.403L270.076 38.7579C270.667 38.1715 271.031 37.8195 271.276 37.6066C271.522 37.3912 271.592 37.3684 271.595 37.3676M269.723 38.403L270.076 38.758L268.982 39.8435M268.982 39.8435L268.627 40.1957L269.854 41.4256L271.435 43.0094M268.982 39.8435L270.208 41.0724L271.599 42.4655M271.435 43.0094L271.787 42.9373C273.124 42.6633 274.485 44.0415 274.201 45.3815L274.121 45.7557M271.435 43.0094L271.335 42.5196L271.599 42.4655M271.435 43.0094L271.74 42.7057L271.789 42.6562L271.714 42.5809L271.599 42.4655M274.121 45.7557L274.445 45.4334L274.475 45.403L274.522 45.4497L274.666 45.5948M274.121 45.7557L274.61 45.8596L274.666 45.5948M277.302 48.2429L277.62 48.2194C277.62 48.2194 277.62 48.2194 277.62 48.2194C278.187 48.1774 278.713 48.271 279.168 48.5254C279.625 48.7803 279.975 49.1765 280.222 49.6786C280.41 50.0602 280.52 50.4363 280.519 50.8331C280.519 51.2299 280.409 51.6063 280.221 51.9884C279.256 53.9495 276.507 53.9615 275.541 51.9977L275.541 51.9976C275.442 51.7972 275.366 51.6201 275.319 51.4303L277.302 48.2429ZM277.302 48.2429L275.97 46.9045L274.666 45.5948M277.302 48.2429L271.595 37.3676M272.508 63.9711C272.359 64.0146 272.176 64.0348 271.991 64.0254C271.81 64.0161 271.658 63.98 271.556 63.935C271.555 63.9344 271.555 63.9338 271.554 63.9331C271.528 63.9111 271.49 63.8774 271.438 63.8306C271.336 63.7378 271.193 63.6042 271.013 63.434C270.655 63.0941 270.16 62.6161 269.573 62.0439C268.398 60.8998 266.859 59.3839 265.316 57.854C263.773 56.3243 262.227 54.7816 261.04 53.5843C260.447 52.9854 259.944 52.4739 259.576 52.094C259.392 51.9038 259.243 51.7481 259.134 51.6314C259.079 51.573 259.036 51.526 259.005 51.4902C258.976 51.4578 258.963 51.4422 258.96 51.4385C258.959 51.4377 258.959 51.4374 258.959 51.4376C258.703 51.0876 258.63 50.7427 258.717 50.3424L258.717 50.3423L258.778 50.0664L263.016 45.8188L267.004 41.8219L268.21 43.0273L268.21 43.0273C268.758 43.5749 269.137 43.9653 269.373 44.2259C269.445 44.305 269.5 44.3682 269.541 44.4176C269.534 44.4555 269.529 44.4918 269.525 44.5248C269.509 44.6517 269.499 44.7944 269.495 44.935C269.488 45.1974 269.499 45.5259 269.559 45.7461C269.711 46.314 270.156 46.9151 270.653 47.2377L270.925 46.8181L270.653 47.2377L270.782 47.321V50.8335V54.3399L270.656 54.4182C270.656 54.4182 270.656 54.4182 270.656 54.4182C269.56 55.0997 269.176 56.5436 269.731 57.7183L269.731 57.7183C270.188 58.683 271.047 59.2272 272.114 59.2296C272.341 59.2302 272.537 59.2233 272.739 59.1717C272.94 59.1206 273.118 59.0327 273.323 58.9229L273.087 58.4822L273.323 58.9229C274.998 58.0252 275.224 55.8503 273.784 54.6104C273.784 54.6104 273.784 54.6103 273.784 54.6103L273.594 54.4465L273.594 50.9416V48.4141L274.148 48.9678C274.826 49.6448 275.155 49.9782 275.312 50.1659C275.316 50.1712 275.321 50.1763 275.325 50.181C275.306 50.2626 275.295 50.3469 275.286 50.4172C275.271 50.5515 275.261 50.7051 275.26 50.85L271.595 37.3676L271.595 37.3676C271.712 37.3358 271.893 37.3209 272.094 37.3363C272.274 37.3501 272.431 37.3851 272.538 37.4261C272.564 37.448 272.604 37.482 272.657 37.5297C272.764 37.6253 272.913 37.7634 273.1 37.9398C273.472 38.292 273.984 38.7874 274.591 39.3803C275.803 40.5655 277.384 42.1343 278.961 43.7118C280.537 45.2893 282.108 46.8743 283.297 48.092C283.892 48.7012 284.391 49.2169 284.746 49.5934C284.925 49.7819 285.065 49.9331 285.163 50.0426C285.212 50.0977 285.248 50.139 285.271 50.1675C285.274 50.1713 285.277 50.1747 285.279 50.1776C285.41 50.4641 285.416 50.9125 285.281 51.2226M272.508 63.9711C272.514 63.9665 272.523 63.96 272.535 63.9512C272.584 63.9144 272.658 63.8535 272.767 63.758C272.982 63.5678 273.306 63.2636 273.79 62.7946C274.757 61.8582 276.341 60.286 278.928 57.7042C281.342 55.2956 282.923 53.708 283.914 52.6918C284.41 52.1831 284.755 51.8212 284.981 51.5725C285.095 51.4478 285.175 51.356 285.228 51.2909C285.261 51.2509 285.276 51.2295 285.281 51.2226M285.281 51.2226C285.278 51.2284 285.276 51.2342 285.273 51.2399C285.279 51.2273 285.283 51.2201 285.283 51.22C285.283 51.22 285.282 51.2208 285.281 51.2226ZM271.599 42.4655L271.687 42.4475C272.556 42.2694 273.395 42.6327 273.958 43.2028C274.521 43.7731 274.874 44.6167 274.69 45.4853L274.666 45.5948M258.32 49.8168L262.662 45.4656L266.65 41.4684L258.32 49.8168ZM275.37 50.0268C275.37 50.027 275.37 50.0272 275.37 50.0273L275.37 50.0266L275.37 50.0268Z" fill="white" stroke="#1A2E35"/>
</svg>
