<svg width="128" height="128" viewBox="0 0 128 128" fill="none" xmlns="http://www.w3.org/2000/svg">
<rect width="128" height="128" rx="64" fill="white"/>
<path fill-rule="evenodd" clip-rule="evenodd" d="M50.1205 60.1494V77.3739C50.2957 78.9159 51.7606 81.9999 56.2184 81.9999H62.6317V78.5304H56.2184C55.3072 78.5304 53.4849 78.0258 53.4849 76.0072V60.1494H61.0539V56.3645H53.4849V50.0384H50.1205V56.3645H45.4937V60.1494H50.1205Z" fill="black"/>
<path fill-rule="evenodd" clip-rule="evenodd" d="M100.752 60.1494V77.374C100.928 78.916 102.392 82 106.85 82H113.264V78.5305H106.85C105.939 78.5305 104.117 78.0258 104.117 76.0072V60.1494H111.686V56.3645H104.117V50.0385H100.752V56.3645H96.1255V60.1494H100.752Z" fill="black"/>
<path fill-rule="evenodd" clip-rule="evenodd" d="M13.7373 45.4592H18.0246L27.9297 62.7562L38.0296 45.4592H42.4178L29.8516 67.0434H25.5643L13.7373 45.4592ZM29.8541 67.0435H25.574V82H29.8541V67.0435Z" fill="#38BFF2"/>
<path fill-rule="evenodd" clip-rule="evenodd" d="M64.3687 45.4592H68.6559L78.5611 62.7562L88.661 45.4592H93.0491L80.483 67.0434H76.1957L64.3687 45.4592ZM80.4851 67.0435H76.205V82H80.4851V67.0435Z" fill="#F15525"/>
</svg>
