<svg viewBox="0 0 60 60" fill="none" xmlns="http://www.w3.org/2000/svg">
<path d="M39.2664 4.02055V55.9793C39.2664 57.6874 37.8817 59.0721 36.1735 59.0721H8.24778C6.53965 59.0721 5.15497 57.6874 5.15497 55.9793V4.02055C5.15497 2.31242 6.53965 0.927734 8.24778 0.927734H36.1735C37.8817 0.927852 39.2664 2.31254 39.2664 4.02055Z" fill="white"/>
<path d="M30.8145 0.927856V3.39711C30.8145 4.76364 29.7068 5.8713 28.3404 5.8713H16.0806C14.714 5.8713 13.6064 4.76352 13.6064 3.39711V0.927856H30.8145Z" fill="#38BFF2"/>
<path d="M54.8452 20.7649V40.4721C54.8452 41.8387 53.7374 42.9463 52.371 42.9463H22.2101V18.2906H52.3709C53.7374 18.2906 54.8452 19.3984 54.8452 20.7649Z" fill="#38BFF2"/>
<path d="M22.2101 23.3474H54.8452V29.4781H22.2101V23.3474Z" fill="#D7E9FF"/>
<path d="M14.0558 54.7422C13.7142 54.7422 13.4373 55.0189 13.4373 55.3607C13.4373 55.7027 13.7142 55.9792 14.0558 55.9792H30.3652C30.7068 55.9792 30.9837 55.7025 30.9837 55.3607C30.9837 55.0187 30.7068 54.7422 30.3652 54.7422H14.0558Z" fill="#1A2E35"/>
<path d="M26.6969 4.01816H27.8014C28.143 4.01816 28.42 3.74148 28.42 3.39964C28.42 3.05781 28.143 2.78113 27.8014 2.78113H26.6969C26.3553 2.78113 26.0784 3.05781 26.0784 3.39964C26.0784 3.74148 26.3553 4.01816 26.6969 4.01816Z" fill="#1A2E35"/>
<path d="M16.6196 4.01816H23.7982C24.1398 4.01816 24.4167 3.74148 24.4167 3.39964C24.4167 3.05781 24.1398 2.78113 23.7982 2.78113H16.6196C16.278 2.78113 16.001 3.05781 16.001 3.39964C16.001 3.74148 16.278 4.01816 16.6196 4.01816Z" fill="#1A2E35"/>
<path d="M52.3707 17.6723H39.8849V4.02053C39.8849 1.97397 38.2201 0.309204 36.1735 0.309204C30.0916 0.309204 14.3337 0.309204 8.24789 0.309204C6.20133 0.309204 4.53656 1.97397 4.53656 4.02053V55.9792C4.53656 58.0258 6.20133 59.6906 8.24789 59.6906H36.1734C38.22 59.6906 39.8848 58.0258 39.8848 55.9792V43.5647H52.3706C54.0759 43.5647 55.4634 42.1772 55.4634 40.4719C55.4634 33.2803 55.4634 27.8474 55.4634 20.7651C55.4635 19.0598 54.0759 17.6723 52.3707 17.6723ZM54.2264 20.7651V22.7289H22.8286V18.9094H52.3707C53.394 18.9094 54.2264 19.7418 54.2264 20.7651ZM54.2264 28.8595H22.8286V23.966H54.2264V28.8595ZM30.196 1.54635V3.39721C30.196 4.42049 29.3637 5.25288 28.3404 5.25288H16.0807C15.0574 5.25288 14.225 4.42049 14.225 3.39721V1.54635H30.196ZM38.6477 55.9794C38.6477 57.3439 37.5377 58.4535 36.1735 58.4535H8.24777C6.88347 58.4535 5.77359 57.3439 5.77359 55.9794V4.02053C5.77359 2.656 6.88359 1.54635 8.24777 1.54635H12.9878V3.39721C12.9878 5.10252 14.3753 6.49002 16.0806 6.49002H28.3403C30.0456 6.49002 31.4331 5.10252 31.4331 3.39721V1.54635H36.1734C37.5377 1.54635 38.6476 2.656 38.6476 4.02053V17.6723H22.8285V14.8822C22.8285 14.5402 22.5516 14.2637 22.21 14.2637C21.8684 14.2637 21.5914 14.5403 21.5914 14.8822V46.3482C21.5914 46.6901 21.8684 46.9667 22.21 46.9667C22.5516 46.9667 22.8285 46.69 22.8285 46.3482V43.5646H38.6476V55.9794H38.6477ZM52.3707 42.3276H22.8286V34.7671H43.2787C43.6203 34.7671 43.8973 34.4905 43.8973 34.1486C43.8973 33.8067 43.6203 33.5301 43.2787 33.5301H22.8286V30.0966H54.2264V40.4719C54.2264 41.4952 53.394 42.3276 52.3707 42.3276Z" fill="#1A2E35"/>
<path d="M43.2788 37.657H41.5068C41.1652 37.657 40.8882 37.9337 40.8882 38.2755C40.8882 38.6175 41.1652 38.894 41.5068 38.894H43.2788C43.6204 38.894 43.8973 38.6173 43.8973 38.2755C43.8973 37.9337 43.6204 37.657 43.2788 37.657Z" fill="#1A2E35"/>
<path d="M38.2134 37.657H36.4415C36.0999 37.657 35.8229 37.9337 35.8229 38.2755C35.8229 38.6175 36.0999 38.894 36.4415 38.894H38.2134C38.555 38.894 38.832 38.6173 38.832 38.2755C38.832 37.9337 38.555 37.657 38.2134 37.657Z" fill="#1A2E35"/>
<path d="M33.148 37.657H31.376C31.0344 37.657 30.7575 37.9337 30.7575 38.2755C30.7575 38.6175 31.0344 38.894 31.376 38.894H33.148C33.4896 38.894 33.7665 38.6173 33.7665 38.2755C33.7666 37.9337 33.4896 37.657 33.148 37.657Z" fill="#1A2E35"/>
<path d="M28.0827 37.657H26.3107C25.9691 37.657 25.6922 37.9337 25.6922 38.2755C25.6922 38.6175 25.9691 38.894 26.3107 38.894H28.0827C28.4243 38.894 28.7012 38.6173 28.7012 38.2755C28.7013 37.9337 28.4243 37.657 28.0827 37.657Z" fill="#1A2E35"/>
</svg>
