<svg width="12" height="12" viewBox="0 0 12 12" fill="none" xmlns="http://www.w3.org/2000/svg">
<path d="M4.80316 0.11961C2.4624 0.580189 0.577515 2.4743 0.119132 4.82345C-0.573202 8.36579 1.83869 11.5159 5.10624 11.9911C5.58241 12.0637 6.01224 11.6829 6.01224 11.1994L6.01224 11.1827C6.01224 10.787 5.72569 10.4567 5.33994 10.3973C3.22712 10.071 1.60274 8.23196 1.60274 6.01781C1.60274 3.43083 3.82227 1.3542 6.44707 1.60812C8.73999 1.83109 10.4197 3.90222 10.4197 6.21391V6.62019C10.4197 7.17555 9.97036 7.62707 9.4178 7.62707C8.86523 7.62707 8.41562 7.17555 8.41562 6.62019V3.60078C8.41562 3.37836 8.23625 3.19802 8.01459 3.19802L7.21355 3.19811C7.03072 3.19811 6.88291 3.32362 6.83482 3.49176C6.21237 3.1863 5.4762 3.07995 4.67917 3.36339C3.70855 3.70857 2.97288 4.59302 2.83261 5.61701C2.59508 7.35197 3.92998 8.83503 5.61046 8.83503C6.27274 8.83503 6.87365 8.59509 7.35357 8.20953C7.95473 8.99643 8.98747 9.43363 10.0939 9.15205C11.2506 8.88294 12.0221 7.74657 11.9995 6.56747V6.04203C11.9995 2.29102 8.64556 -0.636173 4.80316 0.11961ZM5.58717 7.24878C4.92414 7.24878 4.38485 6.70675 4.38485 6.04077C4.38485 5.37479 4.92414 4.83275 5.58717 4.83275C6.25019 4.83275 6.78948 5.37479 6.78948 6.04077C6.78948 6.70675 6.27349 7.24878 5.58717 7.24878Z" fill="#22253B" fill-opacity="0.5"/>
</svg>
